<svg width="504" height="349" viewBox="0 0 504 349" fill="none" xmlns="http://www.w3.org/2000/svg">
<g opacity="0.15">
<mask id="path-1-outside-1_15_174" maskUnits="userSpaceOnUse" x="8" y="-0.000976562" width="492" height="85" fill="black">
<rect fill="white" x="8" y="-0.000976562" width="492" height="85"/>
<path d="M9.416 81.999V2.28402H36.808C42.0153 2.28402 46.5807 3.31835 50.504 5.38702C54.4273 7.38435 57.459 10.2377 59.599 13.947C61.8103 17.585 62.916 21.8294 62.916 26.68C62.916 31.5307 61.8103 35.775 59.599 39.413C57.459 43.051 54.4273 45.9044 50.504 47.973C46.652 49.9704 42.0867 50.969 36.808 50.969H17.976V81.999H9.416ZM17.976 42.944H37.236C40.66 42.944 43.656 42.302 46.224 41.018C48.792 39.6627 50.7893 37.7724 52.216 35.347C53.6427 32.8504 54.356 29.9257 54.356 26.573C54.356 23.2204 53.6427 20.3314 52.216 17.906C50.7893 15.4807 48.792 13.626 46.224 12.342C43.656 10.9867 40.66 10.309 37.236 10.309H17.976V42.944ZM76.0319 81.999V2.28402H103.424C108.631 2.28402 113.197 3.31835 117.12 5.38702C121.043 7.38435 124.075 10.2377 126.215 13.947C128.426 17.585 129.532 21.8294 129.532 26.68C129.532 32.3154 128.034 37.1304 125.038 41.125C122.113 45.1197 118.119 47.9374 113.054 49.578L131.672 81.999H121.614L102.14 47.652L107.918 50.969H84.5919V81.999H76.0319ZM84.5919 42.944H103.852C107.276 42.944 110.272 42.302 112.84 41.018C115.408 39.6627 117.405 37.7724 118.832 35.347C120.259 32.8504 120.972 29.9257 120.972 26.573C120.972 23.2204 120.259 20.3314 118.832 17.906C117.405 15.4807 115.408 13.626 112.84 12.342C110.272 10.9867 107.276 10.309 103.852 10.309H84.5919V42.944ZM134.2 81.999L163.304 2.28402H172.506L201.61 81.999H192.622L185.774 62.525H150.143L143.188 81.999H134.2ZM152.925 54.5H182.778L166.621 8.70402H169.189L152.925 54.5ZM243.24 83.283C237.605 83.283 232.433 82.2844 227.725 80.287C223.017 78.2184 218.916 75.365 215.42 71.727C211.996 68.0177 209.321 63.6664 207.395 58.673C205.469 53.6797 204.506 48.187 204.506 42.195C204.506 36.203 205.469 30.7104 207.395 25.717C209.321 20.7237 211.996 16.3724 215.42 12.663C218.916 8.95369 223.017 6.10035 227.725 4.10302C232.433 2.03435 237.605 1.00002 243.24 1.00002C248.662 1.00002 253.512 1.96302 257.792 3.88902C262.144 5.81502 265.782 8.31169 268.706 11.379C271.702 14.375 273.842 17.5494 275.126 20.902L267.101 24.433C265.104 19.7964 262.037 16.087 257.899 13.305C253.833 10.4517 248.947 9.02502 243.24 9.02502C237.391 9.02502 232.184 10.416 227.618 13.198C223.053 15.98 219.486 19.8677 216.918 24.861C214.35 29.783 213.066 35.561 213.066 42.195C213.066 48.7577 214.35 54.5357 216.918 59.529C219.486 64.5224 223.053 68.41 227.618 71.192C232.184 73.9027 237.391 75.258 243.24 75.258C248.947 75.258 253.833 73.867 257.899 71.085C262.037 68.303 265.104 64.5937 267.101 59.957L275.126 63.488C273.842 66.7694 271.702 69.9437 268.706 73.011C265.782 76.007 262.144 78.468 257.792 80.394C253.512 82.32 248.662 83.283 243.24 83.283ZM302.117 81.999V10.309H280.075V2.28402H332.505V10.309H310.677V81.999H302.117ZM340.928 81.999V2.28402H349.488V81.999H340.928ZM402.545 83.283C396.91 83.283 391.738 82.2844 387.03 80.287C382.322 78.2184 378.22 75.365 374.725 71.727C371.301 68.0177 368.626 63.6664 366.7 58.673C364.774 53.6797 363.811 48.187 363.811 42.195C363.811 36.203 364.774 30.7104 366.7 25.717C368.626 20.7237 371.301 16.3724 374.725 12.663C378.22 8.95369 382.322 6.10035 387.03 4.10302C391.738 2.03435 396.91 1.00002 402.545 1.00002C407.966 1.00002 412.817 1.96302 417.097 3.88902C421.448 5.81502 425.086 8.31169 428.011 11.379C431.007 14.375 433.147 17.5494 434.431 20.902L426.406 24.433C424.409 19.7964 421.341 16.087 417.204 13.305C413.138 10.4517 408.252 9.02502 402.545 9.02502C396.696 9.02502 391.488 10.416 386.923 13.198C382.358 15.98 378.791 19.8677 376.223 24.861C373.655 29.783 372.371 35.561 372.371 42.195C372.371 48.7577 373.655 54.5357 376.223 59.529C378.791 64.5224 382.358 68.41 386.923 71.192C391.488 73.9027 396.696 75.258 402.545 75.258C408.252 75.258 413.138 73.867 417.204 71.085C421.341 68.303 424.409 64.5937 426.406 59.957L434.431 63.488C433.147 66.7694 431.007 69.9437 428.011 73.011C425.086 76.007 421.448 78.468 417.097 80.394C412.817 82.32 407.966 83.283 402.545 83.283ZM447.619 81.999V2.28402H498.979V10.309H456.179V38.022H496.839V46.047H456.179V73.974H498.979V81.999H447.619Z"/>
</mask>
<path d="M9.416 81.999H8.416V82.999H9.416V81.999ZM9.416 2.28402V1.28402H8.416V2.28402H9.416ZM50.504 5.38702L50.0376 6.27159L50.0439 6.27493L50.0503 6.27818L50.504 5.38702ZM59.599 13.947L58.7328 14.4467L58.7385 14.4567L58.7445 14.4664L59.599 13.947ZM59.599 39.413L58.7445 38.8936L58.7407 38.8998L58.7371 38.906L59.599 39.413ZM50.504 47.973L50.9643 48.8608L50.9704 48.8576L50.504 47.973ZM17.976 50.969V49.969H16.976V50.969H17.976ZM17.976 81.999V82.999H18.976V81.999H17.976ZM17.976 42.944H16.976V43.944H17.976V42.944ZM46.224 41.018L46.6712 41.9124L46.681 41.9075L46.6908 41.9024L46.224 41.018ZM52.216 35.347L53.078 35.8541L53.0842 35.8432L52.216 35.347ZM52.216 17.906L53.0779 17.399V17.399L52.216 17.906ZM46.224 12.342L45.7572 13.2264L45.767 13.2315L45.7768 13.2364L46.224 12.342ZM17.976 10.309V9.30902H16.976V10.309H17.976ZM10.416 81.999V2.28402H8.416V81.999H10.416ZM9.416 3.28402H36.808V1.28402H9.416V3.28402ZM36.808 3.28402C41.8811 3.28402 46.2811 4.29091 50.0376 6.27159L50.9704 4.50245C46.8802 2.34579 42.1496 1.28402 36.808 1.28402V3.28402ZM50.0503 6.27818C53.8063 8.19031 56.6924 10.91 58.7328 14.4467L60.4652 13.4473C58.2256 9.56541 55.0484 6.5784 50.9577 4.49586L50.0503 6.27818ZM58.7445 14.4664C60.848 17.927 61.916 21.9865 61.916 26.68H63.916C63.916 21.6722 62.7727 17.243 60.4535 13.4276L58.7445 14.4664ZM61.916 26.68C61.916 31.3736 60.848 35.433 58.7445 38.8936L60.4535 39.9324C62.7727 36.117 63.916 31.6878 63.916 26.68H61.916ZM58.7371 38.906C56.6962 42.3755 53.8053 45.1018 50.0376 47.0885L50.9704 48.8576C55.0494 46.7069 58.2218 43.7265 60.4609 39.92L58.7371 38.906ZM50.0437 47.0853C46.3615 48.9945 41.9607 49.969 36.808 49.969V51.969C42.2126 51.969 46.9425 50.9462 50.9643 48.8608L50.0437 47.0853ZM36.808 49.969H17.976V51.969H36.808V49.969ZM16.976 50.969V81.999H18.976V50.969H16.976ZM17.976 80.999H9.416V82.999H17.976V80.999ZM17.976 43.944H37.236V41.944H17.976V43.944ZM37.236 43.944C40.7856 43.944 43.9401 43.278 46.6712 41.9124L45.7768 40.1236C43.3719 41.326 40.5344 41.944 37.236 41.944V43.944ZM46.6908 41.9024C49.4174 40.4633 51.554 38.4447 53.0779 35.854L51.3541 34.84C50.0247 37.1 48.1666 38.8621 45.7572 40.1336L46.6908 41.9024ZM53.0842 35.8432C54.6106 33.172 55.356 30.0706 55.356 26.573H53.356C53.356 29.7808 52.6747 32.5287 51.3478 34.8509L53.0842 35.8432ZM55.356 26.573C55.356 23.0764 54.6109 20.0051 53.0779 17.399L51.3541 18.413C52.6744 20.6576 53.356 23.3643 53.356 26.573H55.356ZM53.0779 17.399C51.5513 14.8036 49.4082 12.8161 46.6712 11.4476L45.7768 13.2364C48.1758 14.4359 50.0274 16.1577 51.3541 18.413L53.0779 17.399ZM46.6908 11.4576C43.9552 10.0139 40.7936 9.30902 37.236 9.30902V11.309C40.5264 11.309 43.3568 11.9595 45.7572 13.2264L46.6908 11.4576ZM37.236 9.30902H17.976V11.309H37.236V9.30902ZM16.976 10.309V42.944H18.976V10.309H16.976ZM76.0319 81.999H75.0319V82.999H76.0319V81.999ZM76.0319 2.28402V1.28402H75.0319V2.28402H76.0319ZM117.12 5.38702L116.653 6.27159L116.66 6.27493L116.666 6.27818L117.12 5.38702ZM126.215 13.947L125.349 14.4467L125.354 14.4567L125.36 14.4664L126.215 13.947ZM125.038 41.125L124.238 40.525L124.231 40.5343L125.038 41.125ZM113.054 49.578L112.746 48.6267L111.573 49.0067L112.187 50.076L113.054 49.578ZM131.672 81.999V82.999H133.399L132.539 81.501L131.672 81.999ZM121.614 81.999L120.744 82.4922L121.031 82.999H121.614V81.999ZM102.14 47.652L102.638 46.7848L99.4664 44.9642L101.27 48.1452L102.14 47.652ZM107.918 50.969V51.969H111.668L108.416 50.1018L107.918 50.969ZM84.5919 50.969V49.969H83.5919V50.969H84.5919ZM84.5919 81.999V82.999H85.5919V81.999H84.5919ZM84.5919 42.944H83.5919V43.944H84.5919V42.944ZM112.84 41.018L113.287 41.9124L113.297 41.9075L113.307 41.9024L112.84 41.018ZM118.832 35.347L119.694 35.8541L119.7 35.8432L118.832 35.347ZM118.832 17.906L119.694 17.399L119.694 17.399L118.832 17.906ZM112.84 12.342L112.373 13.2264L112.383 13.2315L112.393 13.2364L112.84 12.342ZM84.5919 10.309V9.30902H83.5919V10.309H84.5919ZM77.0319 81.999V2.28402H75.0319V81.999H77.0319ZM76.0319 3.28402H103.424V1.28402H76.0319V3.28402ZM103.424 3.28402C108.497 3.28402 112.897 4.29091 116.653 6.27159L117.586 4.50245C113.496 2.34579 108.765 1.28402 103.424 1.28402V3.28402ZM116.666 6.27818C120.422 8.19031 123.308 10.91 125.349 14.4467L127.081 13.4473C124.841 9.56541 121.664 6.5784 117.574 4.49586L116.666 6.27818ZM125.36 14.4664C127.464 17.927 128.532 21.9865 128.532 26.68H130.532C130.532 21.6722 129.389 17.243 127.069 13.4276L125.36 14.4664ZM128.532 26.68C128.532 32.1281 127.088 36.7254 124.238 40.525L125.838 41.725C128.98 37.5353 130.532 32.5026 130.532 26.68H128.532ZM124.231 40.5343C121.44 44.3463 117.626 47.0457 112.746 48.6267L113.362 50.5294C118.611 48.8291 122.786 45.8931 125.845 41.7158L124.231 40.5343ZM112.187 50.076L130.805 82.497L132.539 81.501L113.921 49.08L112.187 50.076ZM131.672 80.999H121.614V82.999H131.672V80.999ZM122.484 81.5058L103.01 47.1588L101.27 48.1452L120.744 82.4922L122.484 81.5058ZM101.642 48.5193L107.42 51.8363L108.416 50.1018L102.638 46.7848L101.642 48.5193ZM107.918 49.969H84.5919V51.969H107.918V49.969ZM83.5919 50.969V81.999H85.5919V50.969H83.5919ZM84.5919 80.999H76.0319V82.999H84.5919V80.999ZM84.5919 43.944H103.852V41.944H84.5919V43.944ZM103.852 43.944C107.401 43.944 110.556 43.278 113.287 41.9124L112.393 40.1236C109.988 41.326 107.15 41.944 103.852 41.944V43.944ZM113.307 41.9024C116.033 40.4633 118.17 38.4447 119.694 35.854L117.97 34.84C116.641 37.1 114.782 38.8621 112.373 40.1336L113.307 41.9024ZM119.7 35.8432C121.227 33.172 121.972 30.0706 121.972 26.573H119.972C119.972 29.7808 119.291 32.5287 117.964 34.8509L119.7 35.8432ZM121.972 26.573C121.972 23.0764 121.227 20.0051 119.694 17.399L117.97 18.413C119.29 20.6576 119.972 23.3643 119.972 26.573H121.972ZM119.694 17.399C118.167 14.8036 116.024 12.8161 113.287 11.4476L112.393 13.2364C114.792 14.4359 116.643 16.1577 117.97 18.413L119.694 17.399ZM113.307 11.4576C110.571 10.0139 107.409 9.30902 103.852 9.30902V11.309C107.142 11.309 109.973 11.9595 112.373 13.2264L113.307 11.4576ZM103.852 9.30902H84.5919V11.309H103.852V9.30902ZM83.5919 10.309V42.944H85.5919V10.309H83.5919ZM134.2 81.999L133.26 81.6561L132.77 82.999H134.2V81.999ZM163.304 2.28402V1.28402H162.604L162.364 1.94106L163.304 2.28402ZM172.506 2.28402L173.445 1.94106L173.205 1.28402H172.506V2.28402ZM201.61 81.999V82.999H203.039L202.549 81.6561L201.61 81.999ZM192.622 81.999L191.678 82.3308L191.913 82.999H192.622V81.999ZM185.774 62.525L186.717 62.1933L186.482 61.525H185.774V62.525ZM150.143 62.525V61.525H149.438L149.201 62.1887L150.143 62.525ZM143.188 81.999V82.999H143.892L144.129 82.3354L143.188 81.999ZM152.925 54.5L151.982 54.1654L151.508 55.5H152.925V54.5ZM182.778 54.5V55.5H184.191L183.721 54.1673L182.778 54.5ZM166.621 8.70402V7.70402H165.208L165.678 9.03672L166.621 8.70402ZM169.189 8.70402L170.131 9.03868L170.605 7.70402H169.189V8.70402ZM135.139 82.342L164.243 2.62697L162.364 1.94106L133.26 81.6561L135.139 82.342ZM163.304 3.28402H172.506V1.28402H163.304V3.28402ZM171.566 2.62697L200.67 82.342L202.549 81.6561L173.445 1.94106L171.566 2.62697ZM201.61 80.999H192.622V82.999H201.61V80.999ZM193.565 81.6673L186.717 62.1933L184.83 62.8568L191.678 82.3308L193.565 81.6673ZM185.774 61.525H150.143V63.525H185.774V61.525ZM149.201 62.1887L142.246 81.6627L144.129 82.3354L151.084 62.8614L149.201 62.1887ZM143.188 80.999H134.2V82.999H143.188V80.999ZM152.925 55.5H182.778V53.5H152.925V55.5ZM183.721 54.1673L167.564 8.37131L165.678 9.03672L181.835 54.8327L183.721 54.1673ZM166.621 9.70402H169.189V7.70402H166.621V9.70402ZM168.246 8.36935L151.982 54.1654L153.867 54.8347L170.131 9.03868L168.246 8.36935ZM227.725 80.287L227.323 81.2026L227.335 81.2076L227.725 80.287ZM215.42 71.727L214.685 72.4053L214.692 72.4126L214.699 72.4198L215.42 71.727ZM207.395 25.717L206.462 25.3571L207.395 25.717ZM215.42 12.663L214.692 11.9772L214.685 11.9847L215.42 12.663ZM227.725 4.10302L228.116 5.02368L228.128 5.01854L227.725 4.10302ZM257.792 3.88902L257.382 4.80096L257.388 4.80345L257.792 3.88902ZM268.706 11.379L267.983 12.0691L267.991 12.0777L267.999 12.0861L268.706 11.379ZM275.126 20.902L275.529 21.8173L276.401 21.4338L276.06 20.5444L275.126 20.902ZM267.101 24.433L266.183 24.8286L266.582 25.7542L267.504 25.3483L267.101 24.433ZM257.899 13.305L257.325 14.1236L257.333 14.1293L257.341 14.1349L257.899 13.305ZM227.618 13.198L228.139 14.052V14.052L227.618 13.198ZM216.918 24.861L217.805 25.3236L217.808 25.3184L216.918 24.861ZM216.918 59.529L217.808 59.0717V59.0717L216.918 59.529ZM227.618 71.192L227.098 72.046L227.108 72.0519L227.618 71.192ZM257.899 71.085L257.341 70.2552L257.335 70.2597L257.899 71.085ZM267.101 59.957L267.504 59.0417L266.582 58.6358L266.183 59.5614L267.101 59.957ZM275.126 63.488L276.057 63.8524L276.407 62.9591L275.529 62.5727L275.126 63.488ZM268.706 73.011L267.991 72.3123L267.991 72.3125L268.706 73.011ZM257.792 80.394L257.388 79.4796L257.382 79.4821L257.792 80.394ZM243.24 82.283C237.725 82.283 232.688 81.3063 228.116 79.3664L227.335 81.2076C232.178 83.2625 237.484 84.283 243.24 84.283V82.283ZM228.128 79.3715C223.537 77.3544 219.544 74.576 216.141 71.0342L214.699 72.4198C218.287 76.1541 222.498 79.0823 227.323 81.2025L228.128 79.3715ZM216.155 71.0487C212.822 67.4376 210.212 63.196 208.328 58.3131L206.462 59.0329C208.431 64.1367 211.171 68.5978 214.685 72.4053L216.155 71.0487ZM208.328 58.3131C206.452 53.4475 205.506 48.0786 205.506 42.195H203.506C203.506 48.2954 204.487 53.9118 206.462 59.0329L208.328 58.3131ZM205.506 42.195C205.506 36.3114 206.452 30.9425 208.328 26.0769L206.462 25.3571C204.487 30.4782 203.506 36.0946 203.506 42.195H205.506ZM208.328 26.0769C210.212 21.1941 212.822 16.9525 216.155 13.3413L214.685 11.9847C211.171 15.7922 208.431 20.2533 206.462 25.3571L208.328 26.0769ZM216.148 13.3488C219.548 9.7406 223.535 6.96705 228.116 5.0236L227.335 3.18244C222.5 5.23365 218.283 8.16677 214.692 11.9772L216.148 13.3488ZM228.128 5.01854C232.697 3.01073 237.73 2.00002 243.24 2.00002V2.00272e-05C237.48 2.00272e-05 232.169 1.05798 227.323 3.1875L228.128 5.01854ZM243.24 2.00002C248.542 2.00002 253.249 2.94133 257.382 4.80094L258.203 2.9771C253.775 0.984709 248.781 2.00272e-05 243.24 2.00272e-05V2.00002ZM257.388 4.80345C261.634 6.68283 265.159 9.10774 267.983 12.0691L269.43 10.6889C266.404 7.51563 262.654 4.94721 258.197 2.97459L257.388 4.80345ZM267.999 12.0861C270.914 15.0005 272.967 18.0596 274.192 21.2597L276.06 20.5444C274.718 17.0391 272.491 13.7495 269.413 10.6719L267.999 12.0861ZM274.724 19.9867L266.699 23.5177L267.504 25.3483L275.529 21.8173L274.724 19.9867ZM268.02 24.0374C265.947 19.2267 262.756 15.3657 258.457 12.4752L257.341 14.1349C261.317 16.8083 264.26 20.366 266.183 24.8286L268.02 24.0374ZM258.474 12.4865C254.215 9.49808 249.121 8.02502 243.24 8.02502V10.025C248.773 10.025 253.451 11.4053 257.325 14.1236L258.474 12.4865ZM243.24 8.02502C237.225 8.02502 231.835 9.45767 227.098 12.3441L228.139 14.052C232.533 11.3744 237.557 10.025 243.24 10.025V8.02502ZM227.098 12.3441C222.367 15.2267 218.677 19.2553 216.029 24.4037L217.808 25.3184C220.296 20.4801 223.738 16.7333 228.139 14.052L227.098 12.3441ZM216.032 24.3985C213.376 29.4886 212.066 35.4312 212.066 42.195H214.066C214.066 35.6909 215.325 30.0775 217.805 25.3236L216.032 24.3985ZM212.066 42.195C212.066 48.8899 213.377 54.8295 216.029 59.9864L217.808 59.0717C215.324 54.2419 214.066 48.6255 214.066 42.195H212.066ZM216.029 59.9864C218.677 65.1347 222.367 69.1633 227.098 72.046L228.139 70.3381C223.738 67.6567 220.296 63.91 217.808 59.0717L216.029 59.9864ZM227.108 72.0519C231.843 74.8634 237.23 76.258 243.24 76.258V74.258C237.552 74.258 232.524 72.942 228.129 70.3322L227.108 72.0519ZM243.24 76.258C249.116 76.258 254.206 74.8234 258.464 71.9103L257.335 70.2597C253.46 72.9107 248.778 74.258 243.24 74.258V76.258ZM258.457 71.9149C262.756 69.0243 265.947 65.1633 268.02 60.3526L266.183 59.5614C264.26 64.0241 261.317 67.5817 257.341 70.2552L258.457 71.9149ZM266.699 60.8723L274.724 64.4033L275.529 62.5727L267.504 59.0417L266.699 60.8723ZM274.195 63.1236C272.969 66.2562 270.913 69.3205 267.991 72.3123L269.422 73.7098C272.491 70.5668 274.715 67.2825 276.057 63.8524L274.195 63.1236ZM267.991 72.3125C265.166 75.2058 261.638 77.5981 257.388 79.4796L258.197 81.3084C262.649 79.3379 266.397 76.8082 269.422 73.7096L267.991 72.3125ZM257.382 79.4821C253.249 81.3417 248.542 82.283 243.24 82.283V84.283C248.781 84.283 253.775 83.2983 258.203 81.3059L257.382 79.4821ZM302.117 81.999H301.117V82.999H302.117V81.999ZM302.117 10.309H303.117V9.30902H302.117V10.309ZM280.075 10.309H279.075V11.309H280.075V10.309ZM280.075 2.28402V1.28402H279.075V2.28402H280.075ZM332.505 2.28402H333.505V1.28402H332.505V2.28402ZM332.505 10.309V11.309H333.505V10.309H332.505ZM310.677 10.309V9.30902H309.677V10.309H310.677ZM310.677 81.999V82.999H311.677V81.999H310.677ZM303.117 81.999V10.309H301.117V81.999H303.117ZM302.117 9.30902H280.075V11.309H302.117V9.30902ZM281.075 10.309V2.28402H279.075V10.309H281.075ZM280.075 3.28402H332.505V1.28402H280.075V3.28402ZM331.505 2.28402V10.309H333.505V2.28402H331.505ZM332.505 9.30902H310.677V11.309H332.505V9.30902ZM309.677 10.309V81.999H311.677V10.309H309.677ZM310.677 80.999H302.117V82.999H310.677V80.999ZM340.928 81.999H339.928V82.999H340.928V81.999ZM340.928 2.28402V1.28402H339.928V2.28402H340.928ZM349.488 2.28402H350.488V1.28402H349.488V2.28402ZM349.488 81.999V82.999H350.488V81.999H349.488ZM341.928 81.999V2.28402H339.928V81.999H341.928ZM340.928 3.28402H349.488V1.28402H340.928V3.28402ZM348.488 2.28402V81.999H350.488V2.28402H348.488ZM349.488 80.999H340.928V82.999H349.488V80.999ZM387.03 80.287L386.628 81.2026L386.639 81.2076L387.03 80.287ZM374.725 71.727L373.99 72.4053L373.997 72.4126L374.004 72.4198L374.725 71.727ZM366.7 25.717L365.767 25.3571L366.7 25.717ZM374.725 12.663L373.997 11.9772L373.99 11.9847L374.725 12.663ZM387.03 4.10302L387.42 5.02368L387.432 5.01854L387.03 4.10302ZM417.097 3.88902L416.686 4.80096L416.692 4.80345L417.097 3.88902ZM428.011 11.379L427.287 12.0691L427.295 12.0777L427.304 12.0861L428.011 11.379ZM434.431 20.902L434.834 21.8173L435.705 21.4338L435.365 20.5444L434.431 20.902ZM426.406 24.433L425.487 24.8286L425.886 25.7542L426.809 25.3483L426.406 24.433ZM417.204 13.305L416.629 14.1236L416.638 14.1293L416.646 14.1349L417.204 13.305ZM386.923 13.198L387.443 14.052V14.052L386.923 13.198ZM376.223 24.861L377.109 25.3236L377.112 25.3184L376.223 24.861ZM376.223 59.529L377.112 59.0717V59.0717L376.223 59.529ZM386.923 71.192L386.402 72.046L386.412 72.0519L386.923 71.192ZM417.204 71.085L416.646 70.2552L416.639 70.2597L417.204 71.085ZM426.406 59.957L426.809 59.0417L425.886 58.6358L425.487 59.5614L426.406 59.957ZM434.431 63.488L435.362 63.8524L435.712 62.9591L434.834 62.5727L434.431 63.488ZM428.011 73.011L427.296 72.3123L427.295 72.3125L428.011 73.011ZM417.097 80.394L416.692 79.4796L416.686 79.4821L417.097 80.394ZM402.545 82.283C397.03 82.283 391.993 81.3063 387.42 79.3664L386.639 81.2076C391.483 83.2625 396.789 84.283 402.545 84.283V82.283ZM387.432 79.3715C382.842 77.3544 378.849 74.576 375.446 71.0342L374.004 72.4198C377.592 76.1541 381.802 79.0823 386.628 81.2025L387.432 79.3715ZM375.46 71.0487C372.126 67.4376 369.516 63.196 367.633 58.3131L365.767 59.0329C367.736 64.1367 370.475 68.5978 373.99 72.4053L375.46 71.0487ZM367.633 58.3131C365.756 53.4475 364.811 48.0786 364.811 42.195H362.811C362.811 48.2954 363.792 53.9118 365.767 59.0329L367.633 58.3131ZM364.811 42.195C364.811 36.3114 365.756 30.9425 367.633 26.0769L365.767 25.3571C363.792 30.4782 362.811 36.0946 362.811 42.195H364.811ZM367.633 26.0769C369.516 21.1941 372.126 16.9525 375.46 13.3413L373.99 11.9847C370.475 15.7922 367.736 20.2533 365.767 25.3571L367.633 26.0769ZM375.453 13.3488C378.853 9.7406 382.839 6.96705 387.42 5.0236L386.639 3.18244C381.804 5.23365 377.588 8.16677 373.997 11.9772L375.453 13.3488ZM387.432 5.01854C392.002 3.01073 397.035 2.00002 402.545 2.00002V2.00272e-05C396.784 2.00272e-05 391.474 1.05798 386.628 3.1875L387.432 5.01854ZM402.545 2.00002C407.847 2.00002 412.554 2.94133 416.686 4.80094L417.507 2.9771C413.08 0.984709 408.086 2.00272e-05 402.545 2.00272e-05V2.00002ZM416.692 4.80345C420.938 6.68283 424.464 9.10774 427.287 12.0691L428.735 10.6889C425.709 7.51563 421.958 4.94721 417.502 2.97459L416.692 4.80345ZM427.304 12.0861C430.218 15.0005 432.271 18.0596 433.497 21.2597L435.365 20.5444C434.022 17.0391 431.796 13.7495 428.718 10.6719L427.304 12.0861ZM434.028 19.9867L426.003 23.5177L426.809 25.3483L434.834 21.8173L434.028 19.9867ZM427.324 24.0374C425.252 19.2267 422.061 15.3657 417.762 12.4752L416.646 14.1349C420.622 16.8083 423.565 20.366 425.487 24.8286L427.324 24.0374ZM417.778 12.4865C413.52 9.49808 408.425 8.02502 402.545 8.02502V10.025C408.078 10.025 412.756 11.4053 416.629 14.1236L417.778 12.4865ZM402.545 8.02502C396.53 8.02502 391.139 9.45767 386.402 12.3441L387.443 14.052C391.837 11.3744 396.861 10.025 402.545 10.025V8.02502ZM386.402 12.3441C381.672 15.2267 377.981 19.2553 375.334 24.4037L377.112 25.3184C379.6 20.4801 383.043 16.7333 387.443 14.052L386.402 12.3441ZM375.336 24.3985C372.681 29.4886 371.371 35.4312 371.371 42.195H373.371C373.371 35.6909 374.629 30.0775 377.109 25.3236L375.336 24.3985ZM371.371 42.195C371.371 48.8899 372.681 54.8295 375.334 59.9864L377.112 59.0717C374.628 54.2419 373.371 48.6255 373.371 42.195H371.371ZM375.334 59.9864C377.981 65.1347 381.672 69.1633 386.402 72.046L387.443 70.3381C383.043 67.6567 379.6 63.91 377.112 59.0717L375.334 59.9864ZM386.412 72.0519C391.148 74.8634 396.535 76.258 402.545 76.258V74.258C396.856 74.258 391.829 72.942 387.433 70.3322L386.412 72.0519ZM402.545 76.258C408.42 76.258 413.511 74.8234 417.769 71.9103L416.639 70.2597C412.765 72.9107 408.083 74.258 402.545 74.258V76.258ZM417.762 71.9149C422.061 69.0243 425.252 65.1633 427.324 60.3526L425.487 59.5614C423.565 64.0241 420.622 67.5817 416.646 70.2552L417.762 71.9149ZM426.003 60.8723L434.028 64.4033L434.834 62.5727L426.809 59.0417L426.003 60.8723ZM433.5 63.1236C432.274 66.2562 430.218 69.3205 427.296 72.3123L428.726 73.7098C431.796 70.5668 434.02 67.2825 435.362 63.8524L433.5 63.1236ZM427.295 72.3125C424.471 75.2058 420.943 77.5981 416.692 79.4796L417.502 81.3084C421.954 79.3379 425.702 76.8082 428.726 73.7096L427.295 72.3125ZM416.686 79.4821C412.554 81.3417 407.847 82.283 402.545 82.283V84.283C408.086 84.283 413.08 83.2983 417.507 81.3059L416.686 79.4821ZM447.619 81.999H446.619V82.999H447.619V81.999ZM447.619 2.28402V1.28402H446.619V2.28402H447.619ZM498.979 2.28402H499.979V1.28402H498.979V2.28402ZM498.979 10.309V11.309H499.979V10.309H498.979ZM456.179 10.309V9.30902H455.179V10.309H456.179ZM456.179 38.022H455.179V39.022H456.179V38.022ZM496.839 38.022H497.839V37.022H496.839V38.022ZM496.839 46.047V47.047H497.839V46.047H496.839ZM456.179 46.047V45.047H455.179V46.047H456.179ZM456.179 73.974H455.179V74.974H456.179V73.974ZM498.979 73.974H499.979V72.974H498.979V73.974ZM498.979 81.999V82.999H499.979V81.999H498.979ZM448.619 81.999V2.28402H446.619V81.999H448.619ZM447.619 3.28402H498.979V1.28402H447.619V3.28402ZM497.979 2.28402V10.309H499.979V2.28402H497.979ZM498.979 9.30902H456.179V11.309H498.979V9.30902ZM455.179 10.309V38.022H457.179V10.309H455.179ZM456.179 39.022H496.839V37.022H456.179V39.022ZM495.839 38.022V46.047H497.839V38.022H495.839ZM496.839 45.047H456.179V47.047H496.839V45.047ZM455.179 46.047V73.974H457.179V46.047H455.179ZM456.179 74.974H498.979V72.974H456.179V74.974ZM497.979 73.974V81.999H499.979V73.974H497.979ZM498.979 80.999H447.619V82.999H498.979V80.999Z" fill="#16215B" mask="url(#path-1-outside-1_15_174)"/>
</g>
<g opacity="0.08">
<mask id="path-3-outside-2_15_174" maskUnits="userSpaceOnUse" x="8" y="87.999" width="492" height="85" fill="black">
<rect fill="white" x="8" y="87.999" width="492" height="85"/>
<path d="M9.416 169.999V90.284H36.808C42.0153 90.284 46.5807 91.3184 50.504 93.387C54.4273 95.3844 57.459 98.2377 59.599 101.947C61.8103 105.585 62.916 109.829 62.916 114.68C62.916 119.531 61.8103 123.775 59.599 127.413C57.459 131.051 54.4273 133.904 50.504 135.973C46.652 137.97 42.0867 138.969 36.808 138.969H17.976V169.999H9.416ZM17.976 130.944H37.236C40.66 130.944 43.656 130.302 46.224 129.018C48.792 127.663 50.7893 125.772 52.216 123.347C53.6427 120.85 54.356 117.926 54.356 114.573C54.356 111.22 53.6427 108.331 52.216 105.906C50.7893 103.481 48.792 101.626 46.224 100.342C43.656 98.9867 40.66 98.309 37.236 98.309H17.976V130.944ZM76.0319 169.999V90.284H103.424C108.631 90.284 113.197 91.3184 117.12 93.387C121.043 95.3844 124.075 98.2377 126.215 101.947C128.426 105.585 129.532 109.829 129.532 114.68C129.532 120.315 128.034 125.13 125.038 129.125C122.113 133.12 118.119 135.937 113.054 137.578L131.672 169.999H121.614L102.14 135.652L107.918 138.969H84.5919V169.999H76.0319ZM84.5919 130.944H103.852C107.276 130.944 110.272 130.302 112.84 129.018C115.408 127.663 117.405 125.772 118.832 123.347C120.259 120.85 120.972 117.926 120.972 114.573C120.972 111.22 120.259 108.331 118.832 105.906C117.405 103.481 115.408 101.626 112.84 100.342C110.272 98.9867 107.276 98.309 103.852 98.309H84.5919V130.944ZM134.2 169.999L163.304 90.284H172.506L201.61 169.999H192.622L185.774 150.525H150.143L143.188 169.999H134.2ZM152.925 142.5H182.778L166.621 96.704H169.189L152.925 142.5ZM243.24 171.283C237.605 171.283 232.433 170.284 227.725 168.287C223.017 166.218 218.916 163.365 215.42 159.727C211.996 156.018 209.321 151.666 207.395 146.673C205.469 141.68 204.506 136.187 204.506 130.195C204.506 124.203 205.469 118.71 207.395 113.717C209.321 108.724 211.996 104.372 215.42 100.663C218.916 96.9537 223.017 94.1004 227.725 92.103C232.433 90.0344 237.605 89 243.24 89C248.662 89 253.512 89.963 257.792 91.889C262.144 93.815 265.782 96.3117 268.706 99.379C271.702 102.375 273.842 105.549 275.126 108.902L267.101 112.433C265.104 107.796 262.037 104.087 257.899 101.305C253.833 98.4517 248.947 97.025 243.24 97.025C237.391 97.025 232.184 98.416 227.618 101.198C223.053 103.98 219.486 107.868 216.918 112.861C214.35 117.783 213.066 123.561 213.066 130.195C213.066 136.758 214.35 142.536 216.918 147.529C219.486 152.522 223.053 156.41 227.618 159.192C232.184 161.903 237.391 163.258 243.24 163.258C248.947 163.258 253.833 161.867 257.899 159.085C262.037 156.303 265.104 152.594 267.101 147.957L275.126 151.488C273.842 154.769 271.702 157.944 268.706 161.011C265.782 164.007 262.144 166.468 257.792 168.394C253.512 170.32 248.662 171.283 243.24 171.283ZM302.117 169.999V98.309H280.075V90.284H332.505V98.309H310.677V169.999H302.117ZM340.928 169.999V90.284H349.488V169.999H340.928ZM402.545 171.283C396.91 171.283 391.738 170.284 387.03 168.287C382.322 166.218 378.22 163.365 374.725 159.727C371.301 156.018 368.626 151.666 366.7 146.673C364.774 141.68 363.811 136.187 363.811 130.195C363.811 124.203 364.774 118.71 366.7 113.717C368.626 108.724 371.301 104.372 374.725 100.663C378.22 96.9537 382.322 94.1004 387.03 92.103C391.738 90.0344 396.91 89 402.545 89C407.966 89 412.817 89.963 417.097 91.889C421.448 93.815 425.086 96.3117 428.011 99.379C431.007 102.375 433.147 105.549 434.431 108.902L426.406 112.433C424.409 107.796 421.341 104.087 417.204 101.305C413.138 98.4517 408.252 97.025 402.545 97.025C396.696 97.025 391.488 98.416 386.923 101.198C382.358 103.98 378.791 107.868 376.223 112.861C373.655 117.783 372.371 123.561 372.371 130.195C372.371 136.758 373.655 142.536 376.223 147.529C378.791 152.522 382.358 156.41 386.923 159.192C391.488 161.903 396.696 163.258 402.545 163.258C408.252 163.258 413.138 161.867 417.204 159.085C421.341 156.303 424.409 152.594 426.406 147.957L434.431 151.488C433.147 154.769 431.007 157.944 428.011 161.011C425.086 164.007 421.448 166.468 417.097 168.394C412.817 170.32 407.966 171.283 402.545 171.283ZM447.619 169.999V90.284H498.979V98.309H456.179V126.022H496.839V134.047H456.179V161.974H498.979V169.999H447.619Z"/>
</mask>
<path d="M9.416 169.999H8.416V170.999H9.416V169.999ZM9.416 90.284V89.284H8.416V90.284H9.416ZM50.504 93.387L50.0376 94.2716L50.0439 94.2749L50.0503 94.2782L50.504 93.387ZM59.599 101.947L58.7328 102.447L58.7385 102.457L58.7445 102.466L59.599 101.947ZM59.599 127.413L58.7445 126.894L58.7407 126.9L58.7371 126.906L59.599 127.413ZM50.504 135.973L50.9643 136.861L50.9704 136.858L50.504 135.973ZM17.976 138.969V137.969H16.976V138.969H17.976ZM17.976 169.999V170.999H18.976V169.999H17.976ZM17.976 130.944H16.976V131.944H17.976V130.944ZM46.224 129.018L46.6712 129.912L46.681 129.908L46.6908 129.902L46.224 129.018ZM52.216 123.347L53.078 123.854L53.0842 123.843L52.216 123.347ZM52.216 105.906L53.0779 105.399V105.399L52.216 105.906ZM46.224 100.342L45.7572 101.226L45.767 101.232L45.7768 101.236L46.224 100.342ZM17.976 98.309V97.309H16.976V98.309H17.976ZM10.416 169.999V90.284H8.416V169.999H10.416ZM9.416 91.284H36.808V89.284H9.416V91.284ZM36.808 91.284C41.8811 91.284 46.2811 92.2909 50.0376 94.2716L50.9704 92.5025C46.8802 90.3458 42.1496 89.284 36.808 89.284V91.284ZM50.0503 94.2782C53.8063 96.1903 56.6924 98.91 58.7328 102.447L60.4652 101.447C58.2256 97.5654 55.0484 94.5784 50.9577 92.4959L50.0503 94.2782ZM58.7445 102.466C60.848 105.927 61.916 109.986 61.916 114.68H63.916C63.916 109.672 62.7727 105.243 60.4535 101.428L58.7445 102.466ZM61.916 114.68C61.916 119.374 60.848 123.433 58.7445 126.894L60.4535 127.932C62.7727 124.117 63.916 119.688 63.916 114.68H61.916ZM58.7371 126.906C56.6962 130.376 53.8053 133.102 50.0376 135.088L50.9704 136.858C55.0494 134.707 58.2218 131.727 60.4609 127.92L58.7371 126.906ZM50.0437 135.085C46.3615 136.995 41.9607 137.969 36.808 137.969V139.969C42.2126 139.969 46.9425 138.946 50.9643 136.861L50.0437 135.085ZM36.808 137.969H17.976V139.969H36.808V137.969ZM16.976 138.969V169.999H18.976V138.969H16.976ZM17.976 168.999H9.416V170.999H17.976V168.999ZM17.976 131.944H37.236V129.944H17.976V131.944ZM37.236 131.944C40.7856 131.944 43.9401 131.278 46.6712 129.912L45.7768 128.124C43.3719 129.326 40.5344 129.944 37.236 129.944V131.944ZM46.6908 129.902C49.4174 128.463 51.554 126.445 53.0779 123.854L51.3541 122.84C50.0247 125.1 48.1666 126.862 45.7572 128.134L46.6908 129.902ZM53.0842 123.843C54.6106 121.172 55.356 118.071 55.356 114.573H53.356C53.356 117.781 52.6747 120.529 51.3478 122.851L53.0842 123.843ZM55.356 114.573C55.356 111.076 54.6109 108.005 53.0779 105.399L51.3541 106.413C52.6744 108.658 53.356 111.364 53.356 114.573H55.356ZM53.0779 105.399C51.5513 102.804 49.4082 100.816 46.6712 99.4476L45.7768 101.236C48.1758 102.436 50.0274 104.158 51.3541 106.413L53.0779 105.399ZM46.6908 99.4576C43.9552 98.0139 40.7936 97.309 37.236 97.309V99.309C40.5264 99.309 43.3568 99.9595 45.7572 101.226L46.6908 99.4576ZM37.236 97.309H17.976V99.309H37.236V97.309ZM16.976 98.309V130.944H18.976V98.309H16.976ZM76.0319 169.999H75.0319V170.999H76.0319V169.999ZM76.0319 90.284V89.284H75.0319V90.284H76.0319ZM117.12 93.387L116.653 94.2716L116.66 94.2749L116.666 94.2782L117.12 93.387ZM126.215 101.947L125.349 102.447L125.354 102.457L125.36 102.466L126.215 101.947ZM125.038 129.125L124.238 128.525L124.231 128.534L125.038 129.125ZM113.054 137.578L112.746 136.627L111.573 137.007L112.187 138.076L113.054 137.578ZM131.672 169.999V170.999H133.399L132.539 169.501L131.672 169.999ZM121.614 169.999L120.744 170.492L121.031 170.999H121.614V169.999ZM102.14 135.652L102.638 134.785L99.4664 132.964L101.27 136.145L102.14 135.652ZM107.918 138.969V139.969H111.668L108.416 138.102L107.918 138.969ZM84.5919 138.969V137.969H83.5919V138.969H84.5919ZM84.5919 169.999V170.999H85.5919V169.999H84.5919ZM84.5919 130.944H83.5919V131.944H84.5919V130.944ZM112.84 129.018L113.287 129.912L113.297 129.908L113.307 129.902L112.84 129.018ZM118.832 123.347L119.694 123.854L119.7 123.843L118.832 123.347ZM118.832 105.906L119.694 105.399L119.694 105.399L118.832 105.906ZM112.84 100.342L112.373 101.226L112.383 101.232L112.393 101.236L112.84 100.342ZM84.5919 98.309V97.309H83.5919V98.309H84.5919ZM77.0319 169.999V90.284H75.0319V169.999H77.0319ZM76.0319 91.284H103.424V89.284H76.0319V91.284ZM103.424 91.284C108.497 91.284 112.897 92.2909 116.653 94.2716L117.586 92.5025C113.496 90.3458 108.765 89.284 103.424 89.284V91.284ZM116.666 94.2782C120.422 96.1903 123.308 98.91 125.349 102.447L127.081 101.447C124.841 97.5654 121.664 94.5784 117.574 92.4959L116.666 94.2782ZM125.36 102.466C127.464 105.927 128.532 109.986 128.532 114.68H130.532C130.532 109.672 129.389 105.243 127.069 101.428L125.36 102.466ZM128.532 114.68C128.532 120.128 127.088 124.725 124.238 128.525L125.838 129.725C128.98 125.535 130.532 120.503 130.532 114.68H128.532ZM124.231 128.534C121.44 132.346 117.626 135.046 112.746 136.627L113.362 138.529C118.611 136.829 122.786 133.893 125.845 129.716L124.231 128.534ZM112.187 138.076L130.805 170.497L132.539 169.501L113.921 137.08L112.187 138.076ZM131.672 168.999H121.614V170.999H131.672V168.999ZM122.484 169.506L103.01 135.159L101.27 136.145L120.744 170.492L122.484 169.506ZM101.642 136.519L107.42 139.836L108.416 138.102L102.638 134.785L101.642 136.519ZM107.918 137.969H84.5919V139.969H107.918V137.969ZM83.5919 138.969V169.999H85.5919V138.969H83.5919ZM84.5919 168.999H76.0319V170.999H84.5919V168.999ZM84.5919 131.944H103.852V129.944H84.5919V131.944ZM103.852 131.944C107.401 131.944 110.556 131.278 113.287 129.912L112.393 128.124C109.988 129.326 107.15 129.944 103.852 129.944V131.944ZM113.307 129.902C116.033 128.463 118.17 126.445 119.694 123.854L117.97 122.84C116.641 125.1 114.782 126.862 112.373 128.134L113.307 129.902ZM119.7 123.843C121.227 121.172 121.972 118.071 121.972 114.573H119.972C119.972 117.781 119.291 120.529 117.964 122.851L119.7 123.843ZM121.972 114.573C121.972 111.076 121.227 108.005 119.694 105.399L117.97 106.413C119.29 108.658 119.972 111.364 119.972 114.573H121.972ZM119.694 105.399C118.167 102.804 116.024 100.816 113.287 99.4476L112.393 101.236C114.792 102.436 116.643 104.158 117.97 106.413L119.694 105.399ZM113.307 99.4576C110.571 98.0139 107.409 97.309 103.852 97.309V99.309C107.142 99.309 109.973 99.9595 112.373 101.226L113.307 99.4576ZM103.852 97.309H84.5919V99.309H103.852V97.309ZM83.5919 98.309V130.944H85.5919V98.309H83.5919ZM134.2 169.999L133.26 169.656L132.77 170.999H134.2V169.999ZM163.304 90.284V89.284H162.604L162.364 89.9411L163.304 90.284ZM172.506 90.284L173.445 89.9411L173.205 89.284H172.506V90.284ZM201.61 169.999V170.999H203.039L202.549 169.656L201.61 169.999ZM192.622 169.999L191.678 170.331L191.913 170.999H192.622V169.999ZM185.774 150.525L186.717 150.193L186.482 149.525H185.774V150.525ZM150.143 150.525V149.525H149.438L149.201 150.189L150.143 150.525ZM143.188 169.999V170.999H143.892L144.129 170.335L143.188 169.999ZM152.925 142.5L151.982 142.165L151.508 143.5H152.925V142.5ZM182.778 142.5V143.5H184.191L183.721 142.167L182.778 142.5ZM166.621 96.704V95.704H165.208L165.678 97.0367L166.621 96.704ZM169.189 96.704L170.131 97.0387L170.605 95.704H169.189V96.704ZM135.139 170.342L164.243 90.627L162.364 89.9411L133.26 169.656L135.139 170.342ZM163.304 91.284H172.506V89.284H163.304V91.284ZM171.566 90.627L200.67 170.342L202.549 169.656L173.445 89.9411L171.566 90.627ZM201.61 168.999H192.622V170.999H201.61V168.999ZM193.565 169.667L186.717 150.193L184.83 150.857L191.678 170.331L193.565 169.667ZM185.774 149.525H150.143V151.525H185.774V149.525ZM149.201 150.189L142.246 169.663L144.129 170.335L151.084 150.861L149.201 150.189ZM143.188 168.999H134.2V170.999H143.188V168.999ZM152.925 143.5H182.778V141.5H152.925V143.5ZM183.721 142.167L167.564 96.3713L165.678 97.0367L181.835 142.833L183.721 142.167ZM166.621 97.704H169.189V95.704H166.621V97.704ZM168.246 96.3694L151.982 142.165L153.867 142.835L170.131 97.0387L168.246 96.3694ZM227.725 168.287L227.323 169.203L227.335 169.208L227.725 168.287ZM215.42 159.727L214.685 160.405L214.692 160.413L214.699 160.42L215.42 159.727ZM207.395 113.717L206.462 113.357L207.395 113.717ZM215.42 100.663L214.692 99.9772L214.685 99.9847L215.42 100.663ZM227.725 92.103L228.116 93.0237L228.128 93.0185L227.725 92.103ZM257.792 91.889L257.382 92.801L257.388 92.8035L257.792 91.889ZM268.706 99.379L267.983 100.069L267.991 100.078L267.999 100.086L268.706 99.379ZM275.126 108.902L275.529 109.817L276.401 109.434L276.06 108.544L275.126 108.902ZM267.101 112.433L266.183 112.829L266.582 113.754L267.504 113.348L267.101 112.433ZM257.899 101.305L257.325 102.124L257.333 102.129L257.341 102.135L257.899 101.305ZM227.618 101.198L228.139 102.052V102.052L227.618 101.198ZM216.918 112.861L217.805 113.324L217.808 113.318L216.918 112.861ZM216.918 147.529L217.808 147.072V147.072L216.918 147.529ZM227.618 159.192L227.098 160.046L227.108 160.052L227.618 159.192ZM257.899 159.085L257.341 158.255L257.335 158.26L257.899 159.085ZM267.101 147.957L267.504 147.042L266.582 146.636L266.183 147.561L267.101 147.957ZM275.126 151.488L276.057 151.852L276.407 150.959L275.529 150.573L275.126 151.488ZM268.706 161.011L267.991 160.312L267.991 160.312L268.706 161.011ZM257.792 168.394L257.388 167.48L257.382 167.482L257.792 168.394ZM243.24 170.283C237.725 170.283 232.688 169.306 228.116 167.366L227.335 169.208C232.178 171.262 237.484 172.283 243.24 172.283V170.283ZM228.128 167.372C223.537 165.354 219.544 162.576 216.141 159.034L214.699 160.42C218.287 164.154 222.498 167.082 227.323 169.203L228.128 167.372ZM216.155 159.049C212.822 155.438 210.212 151.196 208.328 146.313L206.462 147.033C208.431 152.137 211.171 156.598 214.685 160.405L216.155 159.049ZM208.328 146.313C206.452 141.448 205.506 136.079 205.506 130.195H203.506C203.506 136.295 204.487 141.912 206.462 147.033L208.328 146.313ZM205.506 130.195C205.506 124.311 206.452 118.942 208.328 114.077L206.462 113.357C204.487 118.478 203.506 124.095 203.506 130.195H205.506ZM208.328 114.077C210.212 109.194 212.822 104.952 216.155 101.341L214.685 99.9847C211.171 103.792 208.431 108.253 206.462 113.357L208.328 114.077ZM216.148 101.349C219.548 97.7406 223.535 94.9671 228.116 93.0236L227.335 91.1824C222.5 93.2337 218.283 96.1668 214.692 99.9772L216.148 101.349ZM228.128 93.0185C232.697 91.0107 237.73 90 243.24 90V88C237.48 88 232.169 89.058 227.323 91.1875L228.128 93.0185ZM243.24 90C248.542 90 253.249 90.9413 257.382 92.8009L258.203 90.9771C253.775 88.9847 248.781 88 243.24 88V90ZM257.388 92.8035C261.634 94.6828 265.159 97.1077 267.983 100.069L269.43 98.6889C266.404 95.5156 262.654 92.9472 258.197 90.9746L257.388 92.8035ZM267.999 100.086C270.914 103.001 272.967 106.06 274.192 109.26L276.06 108.544C274.718 105.039 272.491 101.75 269.413 98.6719L267.999 100.086ZM274.724 107.987L266.699 111.518L267.504 113.348L275.529 109.817L274.724 107.987ZM268.02 112.037C265.947 107.227 262.756 103.366 258.457 100.475L257.341 102.135C261.317 104.808 264.26 108.366 266.183 112.829L268.02 112.037ZM258.474 100.486C254.215 97.4981 249.121 96.025 243.24 96.025V98.025C248.773 98.025 253.451 99.4053 257.325 102.124L258.474 100.486ZM243.24 96.025C237.225 96.025 231.835 97.4577 227.098 100.344L228.139 102.052C232.533 99.3744 237.557 98.025 243.24 98.025V96.025ZM227.098 100.344C222.367 103.227 218.677 107.255 216.029 112.404L217.808 113.318C220.296 108.48 223.738 104.733 228.139 102.052L227.098 100.344ZM216.032 112.398C213.376 117.489 212.066 123.431 212.066 130.195H214.066C214.066 123.691 215.325 118.077 217.805 113.324L216.032 112.398ZM212.066 130.195C212.066 136.89 213.377 142.829 216.029 147.986L217.808 147.072C215.324 142.242 214.066 136.625 214.066 130.195H212.066ZM216.029 147.986C218.677 153.135 222.367 157.163 227.098 160.046L228.139 158.338C223.738 155.657 220.296 151.91 217.808 147.072L216.029 147.986ZM227.108 160.052C231.843 162.863 237.23 164.258 243.24 164.258V162.258C237.552 162.258 232.524 160.942 228.129 158.332L227.108 160.052ZM243.24 164.258C249.116 164.258 254.206 162.823 258.464 159.91L257.335 158.26C253.46 160.911 248.778 162.258 243.24 162.258V164.258ZM258.457 159.915C262.756 157.024 265.947 153.163 268.02 148.353L266.183 147.561C264.26 152.024 261.317 155.582 257.341 158.255L258.457 159.915ZM266.699 148.872L274.724 152.403L275.529 150.573L267.504 147.042L266.699 148.872ZM274.195 151.124C272.969 154.256 270.913 157.321 267.991 160.312L269.422 161.71C272.491 158.567 274.715 155.282 276.057 151.852L274.195 151.124ZM267.991 160.312C265.166 163.206 261.638 165.598 257.388 167.48L258.197 169.308C262.649 167.338 266.397 164.808 269.422 161.71L267.991 160.312ZM257.382 167.482C253.249 169.342 248.542 170.283 243.24 170.283V172.283C248.781 172.283 253.775 171.298 258.203 169.306L257.382 167.482ZM302.117 169.999H301.117V170.999H302.117V169.999ZM302.117 98.309H303.117V97.309H302.117V98.309ZM280.075 98.309H279.075V99.309H280.075V98.309ZM280.075 90.284V89.284H279.075V90.284H280.075ZM332.505 90.284H333.505V89.284H332.505V90.284ZM332.505 98.309V99.309H333.505V98.309H332.505ZM310.677 98.309V97.309H309.677V98.309H310.677ZM310.677 169.999V170.999H311.677V169.999H310.677ZM303.117 169.999V98.309H301.117V169.999H303.117ZM302.117 97.309H280.075V99.309H302.117V97.309ZM281.075 98.309V90.284H279.075V98.309H281.075ZM280.075 91.284H332.505V89.284H280.075V91.284ZM331.505 90.284V98.309H333.505V90.284H331.505ZM332.505 97.309H310.677V99.309H332.505V97.309ZM309.677 98.309V169.999H311.677V98.309H309.677ZM310.677 168.999H302.117V170.999H310.677V168.999ZM340.928 169.999H339.928V170.999H340.928V169.999ZM340.928 90.284V89.284H339.928V90.284H340.928ZM349.488 90.284H350.488V89.284H349.488V90.284ZM349.488 169.999V170.999H350.488V169.999H349.488ZM341.928 169.999V90.284H339.928V169.999H341.928ZM340.928 91.284H349.488V89.284H340.928V91.284ZM348.488 90.284V169.999H350.488V90.284H348.488ZM349.488 168.999H340.928V170.999H349.488V168.999ZM387.03 168.287L386.628 169.203L386.639 169.208L387.03 168.287ZM374.725 159.727L373.99 160.405L373.997 160.413L374.004 160.42L374.725 159.727ZM366.7 113.717L365.767 113.357L366.7 113.717ZM374.725 100.663L373.997 99.9772L373.99 99.9847L374.725 100.663ZM387.03 92.103L387.42 93.0237L387.432 93.0185L387.03 92.103ZM417.097 91.889L416.686 92.801L416.692 92.8035L417.097 91.889ZM428.011 99.379L427.287 100.069L427.295 100.078L427.304 100.086L428.011 99.379ZM434.431 108.902L434.834 109.817L435.705 109.434L435.365 108.544L434.431 108.902ZM426.406 112.433L425.487 112.829L425.886 113.754L426.809 113.348L426.406 112.433ZM417.204 101.305L416.629 102.124L416.638 102.129L416.646 102.135L417.204 101.305ZM386.923 101.198L387.443 102.052V102.052L386.923 101.198ZM376.223 112.861L377.109 113.324L377.112 113.318L376.223 112.861ZM376.223 147.529L377.112 147.072V147.072L376.223 147.529ZM386.923 159.192L386.402 160.046L386.412 160.052L386.923 159.192ZM417.204 159.085L416.646 158.255L416.639 158.26L417.204 159.085ZM426.406 147.957L426.809 147.042L425.886 146.636L425.487 147.561L426.406 147.957ZM434.431 151.488L435.362 151.852L435.712 150.959L434.834 150.573L434.431 151.488ZM428.011 161.011L427.296 160.312L427.295 160.312L428.011 161.011ZM417.097 168.394L416.692 167.48L416.686 167.482L417.097 168.394ZM402.545 170.283C397.03 170.283 391.993 169.306 387.42 167.366L386.639 169.208C391.483 171.262 396.789 172.283 402.545 172.283V170.283ZM387.432 167.372C382.842 165.354 378.849 162.576 375.446 159.034L374.004 160.42C377.592 164.154 381.802 167.082 386.628 169.203L387.432 167.372ZM375.46 159.049C372.126 155.438 369.516 151.196 367.633 146.313L365.767 147.033C367.736 152.137 370.475 156.598 373.99 160.405L375.46 159.049ZM367.633 146.313C365.756 141.448 364.811 136.079 364.811 130.195H362.811C362.811 136.295 363.792 141.912 365.767 147.033L367.633 146.313ZM364.811 130.195C364.811 124.311 365.756 118.942 367.633 114.077L365.767 113.357C363.792 118.478 362.811 124.095 362.811 130.195H364.811ZM367.633 114.077C369.516 109.194 372.126 104.952 375.46 101.341L373.99 99.9847C370.475 103.792 367.736 108.253 365.767 113.357L367.633 114.077ZM375.453 101.349C378.853 97.7406 382.839 94.9671 387.42 93.0236L386.639 91.1824C381.804 93.2337 377.588 96.1668 373.997 99.9772L375.453 101.349ZM387.432 93.0185C392.002 91.0107 397.035 90 402.545 90V88C396.784 88 391.474 89.058 386.628 91.1875L387.432 93.0185ZM402.545 90C407.847 90 412.554 90.9413 416.686 92.8009L417.507 90.9771C413.08 88.9847 408.086 88 402.545 88V90ZM416.692 92.8035C420.938 94.6828 424.464 97.1077 427.287 100.069L428.735 98.6889C425.709 95.5156 421.958 92.9472 417.502 90.9746L416.692 92.8035ZM427.304 100.086C430.218 103.001 432.271 106.06 433.497 109.26L435.365 108.544C434.022 105.039 431.796 101.75 428.718 98.6719L427.304 100.086ZM434.028 107.987L426.003 111.518L426.809 113.348L434.834 109.817L434.028 107.987ZM427.324 112.037C425.252 107.227 422.061 103.366 417.762 100.475L416.646 102.135C420.622 104.808 423.565 108.366 425.487 112.829L427.324 112.037ZM417.778 100.486C413.52 97.4981 408.425 96.025 402.545 96.025V98.025C408.078 98.025 412.756 99.4053 416.629 102.124L417.778 100.486ZM402.545 96.025C396.53 96.025 391.139 97.4577 386.402 100.344L387.443 102.052C391.837 99.3744 396.861 98.025 402.545 98.025V96.025ZM386.402 100.344C381.672 103.227 377.981 107.255 375.334 112.404L377.112 113.318C379.6 108.48 383.043 104.733 387.443 102.052L386.402 100.344ZM375.336 112.398C372.681 117.489 371.371 123.431 371.371 130.195H373.371C373.371 123.691 374.629 118.077 377.109 113.324L375.336 112.398ZM371.371 130.195C371.371 136.89 372.681 142.829 375.334 147.986L377.112 147.072C374.628 142.242 373.371 136.625 373.371 130.195H371.371ZM375.334 147.986C377.981 153.135 381.672 157.163 386.402 160.046L387.443 158.338C383.043 155.657 379.6 151.91 377.112 147.072L375.334 147.986ZM386.412 160.052C391.148 162.863 396.535 164.258 402.545 164.258V162.258C396.856 162.258 391.829 160.942 387.433 158.332L386.412 160.052ZM402.545 164.258C408.42 164.258 413.511 162.823 417.769 159.91L416.639 158.26C412.765 160.911 408.083 162.258 402.545 162.258V164.258ZM417.762 159.915C422.061 157.024 425.252 153.163 427.324 148.353L425.487 147.561C423.565 152.024 420.622 155.582 416.646 158.255L417.762 159.915ZM426.003 148.872L434.028 152.403L434.834 150.573L426.809 147.042L426.003 148.872ZM433.5 151.124C432.274 154.256 430.218 157.321 427.296 160.312L428.726 161.71C431.796 158.567 434.02 155.282 435.362 151.852L433.5 151.124ZM427.295 160.312C424.471 163.206 420.943 165.598 416.692 167.48L417.502 169.308C421.954 167.338 425.702 164.808 428.726 161.71L427.295 160.312ZM416.686 167.482C412.554 169.342 407.847 170.283 402.545 170.283V172.283C408.086 172.283 413.08 171.298 417.507 169.306L416.686 167.482ZM447.619 169.999H446.619V170.999H447.619V169.999ZM447.619 90.284V89.284H446.619V90.284H447.619ZM498.979 90.284H499.979V89.284H498.979V90.284ZM498.979 98.309V99.309H499.979V98.309H498.979ZM456.179 98.309V97.309H455.179V98.309H456.179ZM456.179 126.022H455.179V127.022H456.179V126.022ZM496.839 126.022H497.839V125.022H496.839V126.022ZM496.839 134.047V135.047H497.839V134.047H496.839ZM456.179 134.047V133.047H455.179V134.047H456.179ZM456.179 161.974H455.179V162.974H456.179V161.974ZM498.979 161.974H499.979V160.974H498.979V161.974ZM498.979 169.999V170.999H499.979V169.999H498.979ZM448.619 169.999V90.284H446.619V169.999H448.619ZM447.619 91.284H498.979V89.284H447.619V91.284ZM497.979 90.284V98.309H499.979V90.284H497.979ZM498.979 97.309H456.179V99.309H498.979V97.309ZM455.179 98.309V126.022H457.179V98.309H455.179ZM456.179 127.022H496.839V125.022H456.179V127.022ZM495.839 126.022V134.047H497.839V126.022H495.839ZM496.839 133.047H456.179V135.047H496.839V133.047ZM455.179 134.047V161.974H457.179V134.047H455.179ZM456.179 162.974H498.979V160.974H456.179V162.974ZM497.979 161.974V169.999H499.979V161.974H497.979ZM498.979 168.999H447.619V170.999H498.979V168.999Z" fill="#16215B" mask="url(#path-3-outside-2_15_174)"/>
</g>
<g opacity="0.05">
<mask id="path-5-outside-3_15_174" maskUnits="userSpaceOnUse" x="8" y="175.999" width="492" height="85" fill="black">
<rect fill="white" x="8" y="175.999" width="492" height="85"/>
<path d="M9.416 257.999V178.284H36.808C42.0153 178.284 46.5807 179.318 50.504 181.387C54.4273 183.384 57.459 186.238 59.599 189.947C61.8103 193.585 62.916 197.829 62.916 202.68C62.916 207.531 61.8103 211.775 59.599 215.413C57.459 219.051 54.4273 221.904 50.504 223.973C46.652 225.97 42.0867 226.969 36.808 226.969H17.976V257.999H9.416ZM17.976 218.944H37.236C40.66 218.944 43.656 218.302 46.224 217.018C48.792 215.663 50.7893 213.772 52.216 211.347C53.6427 208.85 54.356 205.926 54.356 202.573C54.356 199.22 53.6427 196.331 52.216 193.906C50.7893 191.481 48.792 189.626 46.224 188.342C43.656 186.987 40.66 186.309 37.236 186.309H17.976V218.944ZM76.0319 257.999V178.284H103.424C108.631 178.284 113.197 179.318 117.12 181.387C121.043 183.384 124.075 186.238 126.215 189.947C128.426 193.585 129.532 197.829 129.532 202.68C129.532 208.315 128.034 213.13 125.038 217.125C122.113 221.12 118.119 223.937 113.054 225.578L131.672 257.999H121.614L102.14 223.652L107.918 226.969H84.5919V257.999H76.0319ZM84.5919 218.944H103.852C107.276 218.944 110.272 218.302 112.84 217.018C115.408 215.663 117.405 213.772 118.832 211.347C120.259 208.85 120.972 205.926 120.972 202.573C120.972 199.22 120.259 196.331 118.832 193.906C117.405 191.481 115.408 189.626 112.84 188.342C110.272 186.987 107.276 186.309 103.852 186.309H84.5919V218.944ZM134.2 257.999L163.304 178.284H172.506L201.61 257.999H192.622L185.774 238.525H150.143L143.188 257.999H134.2ZM152.925 230.5H182.778L166.621 184.704H169.189L152.925 230.5ZM243.24 259.283C237.605 259.283 232.433 258.284 227.725 256.287C223.017 254.218 218.916 251.365 215.42 247.727C211.996 244.018 209.321 239.666 207.395 234.673C205.469 229.68 204.506 224.187 204.506 218.195C204.506 212.203 205.469 206.71 207.395 201.717C209.321 196.724 211.996 192.372 215.42 188.663C218.916 184.954 223.017 182.1 227.725 180.103C232.433 178.034 237.605 177 243.24 177C248.662 177 253.512 177.963 257.792 179.889C262.144 181.815 265.782 184.312 268.706 187.379C271.702 190.375 273.842 193.549 275.126 196.902L267.101 200.433C265.104 195.796 262.037 192.087 257.899 189.305C253.833 186.452 248.947 185.025 243.24 185.025C237.391 185.025 232.184 186.416 227.618 189.198C223.053 191.98 219.486 195.868 216.918 200.861C214.35 205.783 213.066 211.561 213.066 218.195C213.066 224.758 214.35 230.536 216.918 235.529C219.486 240.522 223.053 244.41 227.618 247.192C232.184 249.903 237.391 251.258 243.24 251.258C248.947 251.258 253.833 249.867 257.899 247.085C262.037 244.303 265.104 240.594 267.101 235.957L275.126 239.488C273.842 242.769 271.702 245.944 268.706 249.011C265.782 252.007 262.144 254.468 257.792 256.394C253.512 258.32 248.662 259.283 243.24 259.283ZM302.117 257.999V186.309H280.075V178.284H332.505V186.309H310.677V257.999H302.117ZM340.928 257.999V178.284H349.488V257.999H340.928ZM402.545 259.283C396.91 259.283 391.738 258.284 387.03 256.287C382.322 254.218 378.22 251.365 374.725 247.727C371.301 244.018 368.626 239.666 366.7 234.673C364.774 229.68 363.811 224.187 363.811 218.195C363.811 212.203 364.774 206.71 366.7 201.717C368.626 196.724 371.301 192.372 374.725 188.663C378.22 184.954 382.322 182.1 387.03 180.103C391.738 178.034 396.91 177 402.545 177C407.966 177 412.817 177.963 417.097 179.889C421.448 181.815 425.086 184.312 428.011 187.379C431.007 190.375 433.147 193.549 434.431 196.902L426.406 200.433C424.409 195.796 421.341 192.087 417.204 189.305C413.138 186.452 408.252 185.025 402.545 185.025C396.696 185.025 391.488 186.416 386.923 189.198C382.358 191.98 378.791 195.868 376.223 200.861C373.655 205.783 372.371 211.561 372.371 218.195C372.371 224.758 373.655 230.536 376.223 235.529C378.791 240.522 382.358 244.41 386.923 247.192C391.488 249.903 396.696 251.258 402.545 251.258C408.252 251.258 413.138 249.867 417.204 247.085C421.341 244.303 424.409 240.594 426.406 235.957L434.431 239.488C433.147 242.769 431.007 245.944 428.011 249.011C425.086 252.007 421.448 254.468 417.097 256.394C412.817 258.32 407.966 259.283 402.545 259.283ZM447.619 257.999V178.284H498.979V186.309H456.179V214.022H496.839V222.047H456.179V249.974H498.979V257.999H447.619Z"/>
</mask>
<path d="M9.416 257.999H8.416V258.999H9.416V257.999ZM9.416 178.284V177.284H8.416V178.284H9.416ZM50.504 181.387L50.0376 182.272L50.0439 182.275L50.0503 182.278L50.504 181.387ZM59.599 189.947L58.7328 190.447L58.7385 190.457L58.7445 190.466L59.599 189.947ZM59.599 215.413L58.7445 214.894L58.7407 214.9L58.7371 214.906L59.599 215.413ZM50.504 223.973L50.9643 224.861L50.9704 224.858L50.504 223.973ZM17.976 226.969V225.969H16.976V226.969H17.976ZM17.976 257.999V258.999H18.976V257.999H17.976ZM17.976 218.944H16.976V219.944H17.976V218.944ZM46.224 217.018L46.6712 217.912L46.681 217.908L46.6908 217.902L46.224 217.018ZM52.216 211.347L53.078 211.854L53.0842 211.843L52.216 211.347ZM52.216 193.906L53.0779 193.399V193.399L52.216 193.906ZM46.224 188.342L45.7572 189.226L45.767 189.232L45.7768 189.236L46.224 188.342ZM17.976 186.309V185.309H16.976V186.309H17.976ZM10.416 257.999V178.284H8.416V257.999H10.416ZM9.416 179.284H36.808V177.284H9.416V179.284ZM36.808 179.284C41.8811 179.284 46.2811 180.291 50.0376 182.272L50.9704 180.502C46.8802 178.346 42.1496 177.284 36.808 177.284V179.284ZM50.0503 182.278C53.8063 184.19 56.6924 186.91 58.7328 190.447L60.4652 189.447C58.2256 185.565 55.0484 182.578 50.9577 180.496L50.0503 182.278ZM58.7445 190.466C60.848 193.927 61.916 197.986 61.916 202.68H63.916C63.916 197.672 62.7727 193.243 60.4535 189.428L58.7445 190.466ZM61.916 202.68C61.916 207.374 60.848 211.433 58.7445 214.894L60.4535 215.932C62.7727 212.117 63.916 207.688 63.916 202.68H61.916ZM58.7371 214.906C56.6962 218.376 53.8053 221.102 50.0376 223.088L50.9704 224.858C55.0494 222.707 58.2218 219.727 60.4609 215.92L58.7371 214.906ZM50.0437 223.085C46.3615 224.995 41.9607 225.969 36.808 225.969V227.969C42.2126 227.969 46.9425 226.946 50.9643 224.861L50.0437 223.085ZM36.808 225.969H17.976V227.969H36.808V225.969ZM16.976 226.969V257.999H18.976V226.969H16.976ZM17.976 256.999H9.416V258.999H17.976V256.999ZM17.976 219.944H37.236V217.944H17.976V219.944ZM37.236 219.944C40.7856 219.944 43.9401 219.278 46.6712 217.912L45.7768 216.124C43.3719 217.326 40.5344 217.944 37.236 217.944V219.944ZM46.6908 217.902C49.4174 216.463 51.554 214.445 53.0779 211.854L51.3541 210.84C50.0247 213.1 48.1666 214.862 45.7572 216.134L46.6908 217.902ZM53.0842 211.843C54.6106 209.172 55.356 206.071 55.356 202.573H53.356C53.356 205.781 52.6747 208.529 51.3478 210.851L53.0842 211.843ZM55.356 202.573C55.356 199.076 54.6109 196.005 53.0779 193.399L51.3541 194.413C52.6744 196.658 53.356 199.364 53.356 202.573H55.356ZM53.0779 193.399C51.5513 190.804 49.4082 188.816 46.6712 187.448L45.7768 189.236C48.1758 190.436 50.0274 192.158 51.3541 194.413L53.0779 193.399ZM46.6908 187.458C43.9552 186.014 40.7936 185.309 37.236 185.309V187.309C40.5264 187.309 43.3568 187.96 45.7572 189.226L46.6908 187.458ZM37.236 185.309H17.976V187.309H37.236V185.309ZM16.976 186.309V218.944H18.976V186.309H16.976ZM76.0319 257.999H75.0319V258.999H76.0319V257.999ZM76.0319 178.284V177.284H75.0319V178.284H76.0319ZM117.12 181.387L116.653 182.272L116.66 182.275L116.666 182.278L117.12 181.387ZM126.215 189.947L125.349 190.447L125.354 190.457L125.36 190.466L126.215 189.947ZM125.038 217.125L124.238 216.525L124.231 216.534L125.038 217.125ZM113.054 225.578L112.746 224.627L111.573 225.007L112.187 226.076L113.054 225.578ZM131.672 257.999V258.999H133.399L132.539 257.501L131.672 257.999ZM121.614 257.999L120.744 258.492L121.031 258.999H121.614V257.999ZM102.14 223.652L102.638 222.785L99.4664 220.964L101.27 224.145L102.14 223.652ZM107.918 226.969V227.969H111.668L108.416 226.102L107.918 226.969ZM84.5919 226.969V225.969H83.5919V226.969H84.5919ZM84.5919 257.999V258.999H85.5919V257.999H84.5919ZM84.5919 218.944H83.5919V219.944H84.5919V218.944ZM112.84 217.018L113.287 217.912L113.297 217.908L113.307 217.902L112.84 217.018ZM118.832 211.347L119.694 211.854L119.7 211.843L118.832 211.347ZM118.832 193.906L119.694 193.399L119.694 193.399L118.832 193.906ZM112.84 188.342L112.373 189.226L112.383 189.232L112.393 189.236L112.84 188.342ZM84.5919 186.309V185.309H83.5919V186.309H84.5919ZM77.0319 257.999V178.284H75.0319V257.999H77.0319ZM76.0319 179.284H103.424V177.284H76.0319V179.284ZM103.424 179.284C108.497 179.284 112.897 180.291 116.653 182.272L117.586 180.502C113.496 178.346 108.765 177.284 103.424 177.284V179.284ZM116.666 182.278C120.422 184.19 123.308 186.91 125.349 190.447L127.081 189.447C124.841 185.565 121.664 182.578 117.574 180.496L116.666 182.278ZM125.36 190.466C127.464 193.927 128.532 197.986 128.532 202.68H130.532C130.532 197.672 129.389 193.243 127.069 189.428L125.36 190.466ZM128.532 202.68C128.532 208.128 127.088 212.725 124.238 216.525L125.838 217.725C128.98 213.535 130.532 208.503 130.532 202.68H128.532ZM124.231 216.534C121.44 220.346 117.626 223.046 112.746 224.627L113.362 226.529C118.611 224.829 122.786 221.893 125.845 217.716L124.231 216.534ZM112.187 226.076L130.805 258.497L132.539 257.501L113.921 225.08L112.187 226.076ZM131.672 256.999H121.614V258.999H131.672V256.999ZM122.484 257.506L103.01 223.159L101.27 224.145L120.744 258.492L122.484 257.506ZM101.642 224.519L107.42 227.836L108.416 226.102L102.638 222.785L101.642 224.519ZM107.918 225.969H84.5919V227.969H107.918V225.969ZM83.5919 226.969V257.999H85.5919V226.969H83.5919ZM84.5919 256.999H76.0319V258.999H84.5919V256.999ZM84.5919 219.944H103.852V217.944H84.5919V219.944ZM103.852 219.944C107.401 219.944 110.556 219.278 113.287 217.912L112.393 216.124C109.988 217.326 107.15 217.944 103.852 217.944V219.944ZM113.307 217.902C116.033 216.463 118.17 214.445 119.694 211.854L117.97 210.84C116.641 213.1 114.782 214.862 112.373 216.134L113.307 217.902ZM119.7 211.843C121.227 209.172 121.972 206.071 121.972 202.573H119.972C119.972 205.781 119.291 208.529 117.964 210.851L119.7 211.843ZM121.972 202.573C121.972 199.076 121.227 196.005 119.694 193.399L117.97 194.413C119.29 196.658 119.972 199.364 119.972 202.573H121.972ZM119.694 193.399C118.167 190.804 116.024 188.816 113.287 187.448L112.393 189.236C114.792 190.436 116.643 192.158 117.97 194.413L119.694 193.399ZM113.307 187.458C110.571 186.014 107.409 185.309 103.852 185.309V187.309C107.142 187.309 109.973 187.96 112.373 189.226L113.307 187.458ZM103.852 185.309H84.5919V187.309H103.852V185.309ZM83.5919 186.309V218.944H85.5919V186.309H83.5919ZM134.2 257.999L133.26 257.656L132.77 258.999H134.2V257.999ZM163.304 178.284V177.284H162.604L162.364 177.941L163.304 178.284ZM172.506 178.284L173.445 177.941L173.205 177.284H172.506V178.284ZM201.61 257.999V258.999H203.039L202.549 257.656L201.61 257.999ZM192.622 257.999L191.678 258.331L191.913 258.999H192.622V257.999ZM185.774 238.525L186.717 238.193L186.482 237.525H185.774V238.525ZM150.143 238.525V237.525H149.438L149.201 238.189L150.143 238.525ZM143.188 257.999V258.999H143.892L144.129 258.335L143.188 257.999ZM152.925 230.5L151.982 230.165L151.508 231.5H152.925V230.5ZM182.778 230.5V231.5H184.191L183.721 230.167L182.778 230.5ZM166.621 184.704V183.704H165.208L165.678 185.037L166.621 184.704ZM169.189 184.704L170.131 185.039L170.605 183.704H169.189V184.704ZM135.139 258.342L164.243 178.627L162.364 177.941L133.26 257.656L135.139 258.342ZM163.304 179.284H172.506V177.284H163.304V179.284ZM171.566 178.627L200.67 258.342L202.549 257.656L173.445 177.941L171.566 178.627ZM201.61 256.999H192.622V258.999H201.61V256.999ZM193.565 257.667L186.717 238.193L184.83 238.857L191.678 258.331L193.565 257.667ZM185.774 237.525H150.143V239.525H185.774V237.525ZM149.201 238.189L142.246 257.663L144.129 258.335L151.084 238.861L149.201 238.189ZM143.188 256.999H134.2V258.999H143.188V256.999ZM152.925 231.5H182.778V229.5H152.925V231.5ZM183.721 230.167L167.564 184.371L165.678 185.037L181.835 230.833L183.721 230.167ZM166.621 185.704H169.189V183.704H166.621V185.704ZM168.246 184.369L151.982 230.165L153.867 230.835L170.131 185.039L168.246 184.369ZM227.725 256.287L227.323 257.203L227.335 257.208L227.725 256.287ZM215.42 247.727L214.685 248.405L214.692 248.413L214.699 248.42L215.42 247.727ZM207.395 201.717L206.462 201.357L207.395 201.717ZM215.42 188.663L214.692 187.977L214.685 187.985L215.42 188.663ZM227.725 180.103L228.116 181.024L228.128 181.019L227.725 180.103ZM257.792 179.889L257.382 180.801L257.388 180.803L257.792 179.889ZM268.706 187.379L267.983 188.069L267.991 188.078L267.999 188.086L268.706 187.379ZM275.126 196.902L275.529 197.817L276.401 197.434L276.06 196.544L275.126 196.902ZM267.101 200.433L266.183 200.829L266.582 201.754L267.504 201.348L267.101 200.433ZM257.899 189.305L257.325 190.124L257.333 190.129L257.341 190.135L257.899 189.305ZM227.618 189.198L228.139 190.052V190.052L227.618 189.198ZM216.918 200.861L217.805 201.324L217.808 201.318L216.918 200.861ZM216.918 235.529L217.808 235.072V235.072L216.918 235.529ZM227.618 247.192L227.098 248.046L227.108 248.052L227.618 247.192ZM257.899 247.085L257.341 246.255L257.335 246.26L257.899 247.085ZM267.101 235.957L267.504 235.042L266.582 234.636L266.183 235.561L267.101 235.957ZM275.126 239.488L276.057 239.852L276.407 238.959L275.529 238.573L275.126 239.488ZM268.706 249.011L267.991 248.312L267.991 248.312L268.706 249.011ZM257.792 256.394L257.388 255.48L257.382 255.482L257.792 256.394ZM243.24 258.283C237.725 258.283 232.688 257.306 228.116 255.366L227.335 257.208C232.178 259.262 237.484 260.283 243.24 260.283V258.283ZM228.128 255.372C223.537 253.354 219.544 250.576 216.141 247.034L214.699 248.42C218.287 252.154 222.498 255.082 227.323 257.203L228.128 255.372ZM216.155 247.049C212.822 243.438 210.212 239.196 208.328 234.313L206.462 235.033C208.431 240.137 211.171 244.598 214.685 248.405L216.155 247.049ZM208.328 234.313C206.452 229.448 205.506 224.079 205.506 218.195H203.506C203.506 224.295 204.487 229.912 206.462 235.033L208.328 234.313ZM205.506 218.195C205.506 212.311 206.452 206.942 208.328 202.077L206.462 201.357C204.487 206.478 203.506 212.095 203.506 218.195H205.506ZM208.328 202.077C210.212 197.194 212.822 192.952 216.155 189.341L214.685 187.985C211.171 191.792 208.431 196.253 206.462 201.357L208.328 202.077ZM216.148 189.349C219.548 185.741 223.535 182.967 228.116 181.024L227.335 179.182C222.5 181.234 218.283 184.167 214.692 187.977L216.148 189.349ZM228.128 181.019C232.697 179.011 237.73 178 243.24 178V176C237.48 176 232.169 177.058 227.323 179.187L228.128 181.019ZM243.24 178C248.542 178 253.249 178.941 257.382 180.801L258.203 178.977C253.775 176.985 248.781 176 243.24 176V178ZM257.388 180.803C261.634 182.683 265.159 185.108 267.983 188.069L269.43 186.689C266.404 183.516 262.654 180.947 258.197 178.975L257.388 180.803ZM267.999 188.086C270.914 191.001 272.967 194.06 274.192 197.26L276.06 196.544C274.718 193.039 272.491 189.75 269.413 186.672L267.999 188.086ZM274.724 195.987L266.699 199.518L267.504 201.348L275.529 197.817L274.724 195.987ZM268.02 200.037C265.947 195.227 262.756 191.366 258.457 188.475L257.341 190.135C261.317 192.808 264.26 196.366 266.183 200.829L268.02 200.037ZM258.474 188.486C254.215 185.498 249.121 184.025 243.24 184.025V186.025C248.773 186.025 253.451 187.405 257.325 190.124L258.474 188.486ZM243.24 184.025C237.225 184.025 231.835 185.458 227.098 188.344L228.139 190.052C232.533 187.374 237.557 186.025 243.24 186.025V184.025ZM227.098 188.344C222.367 191.227 218.677 195.255 216.029 200.404L217.808 201.318C220.296 196.48 223.738 192.733 228.139 190.052L227.098 188.344ZM216.032 200.398C213.376 205.489 212.066 211.431 212.066 218.195H214.066C214.066 211.691 215.325 206.077 217.805 201.324L216.032 200.398ZM212.066 218.195C212.066 224.89 213.377 230.829 216.029 235.986L217.808 235.072C215.324 230.242 214.066 224.625 214.066 218.195H212.066ZM216.029 235.986C218.677 241.135 222.367 245.163 227.098 248.046L228.139 246.338C223.738 243.657 220.296 239.91 217.808 235.072L216.029 235.986ZM227.108 248.052C231.843 250.863 237.23 252.258 243.24 252.258V250.258C237.552 250.258 232.524 248.942 228.129 246.332L227.108 248.052ZM243.24 252.258C249.116 252.258 254.206 250.823 258.464 247.91L257.335 246.26C253.46 248.911 248.778 250.258 243.24 250.258V252.258ZM258.457 247.915C262.756 245.024 265.947 241.163 268.02 236.353L266.183 235.561C264.26 240.024 261.317 243.582 257.341 246.255L258.457 247.915ZM266.699 236.872L274.724 240.403L275.529 238.573L267.504 235.042L266.699 236.872ZM274.195 239.124C272.969 242.256 270.913 245.321 267.991 248.312L269.422 249.71C272.491 246.567 274.715 243.282 276.057 239.852L274.195 239.124ZM267.991 248.312C265.166 251.206 261.638 253.598 257.388 255.48L258.197 257.308C262.649 255.338 266.397 252.808 269.422 249.71L267.991 248.312ZM257.382 255.482C253.249 257.342 248.542 258.283 243.24 258.283V260.283C248.781 260.283 253.775 259.298 258.203 257.306L257.382 255.482ZM302.117 257.999H301.117V258.999H302.117V257.999ZM302.117 186.309H303.117V185.309H302.117V186.309ZM280.075 186.309H279.075V187.309H280.075V186.309ZM280.075 178.284V177.284H279.075V178.284H280.075ZM332.505 178.284H333.505V177.284H332.505V178.284ZM332.505 186.309V187.309H333.505V186.309H332.505ZM310.677 186.309V185.309H309.677V186.309H310.677ZM310.677 257.999V258.999H311.677V257.999H310.677ZM303.117 257.999V186.309H301.117V257.999H303.117ZM302.117 185.309H280.075V187.309H302.117V185.309ZM281.075 186.309V178.284H279.075V186.309H281.075ZM280.075 179.284H332.505V177.284H280.075V179.284ZM331.505 178.284V186.309H333.505V178.284H331.505ZM332.505 185.309H310.677V187.309H332.505V185.309ZM309.677 186.309V257.999H311.677V186.309H309.677ZM310.677 256.999H302.117V258.999H310.677V256.999ZM340.928 257.999H339.928V258.999H340.928V257.999ZM340.928 178.284V177.284H339.928V178.284H340.928ZM349.488 178.284H350.488V177.284H349.488V178.284ZM349.488 257.999V258.999H350.488V257.999H349.488ZM341.928 257.999V178.284H339.928V257.999H341.928ZM340.928 179.284H349.488V177.284H340.928V179.284ZM348.488 178.284V257.999H350.488V178.284H348.488ZM349.488 256.999H340.928V258.999H349.488V256.999ZM387.03 256.287L386.628 257.203L386.639 257.208L387.03 256.287ZM374.725 247.727L373.99 248.405L373.997 248.413L374.004 248.42L374.725 247.727ZM366.7 201.717L365.767 201.357L366.7 201.717ZM374.725 188.663L373.997 187.977L373.99 187.985L374.725 188.663ZM387.03 180.103L387.42 181.024L387.432 181.019L387.03 180.103ZM417.097 179.889L416.686 180.801L416.692 180.803L417.097 179.889ZM428.011 187.379L427.287 188.069L427.295 188.078L427.304 188.086L428.011 187.379ZM434.431 196.902L434.834 197.817L435.705 197.434L435.365 196.544L434.431 196.902ZM426.406 200.433L425.487 200.829L425.886 201.754L426.809 201.348L426.406 200.433ZM417.204 189.305L416.629 190.124L416.638 190.129L416.646 190.135L417.204 189.305ZM386.923 189.198L387.443 190.052V190.052L386.923 189.198ZM376.223 200.861L377.109 201.324L377.112 201.318L376.223 200.861ZM376.223 235.529L377.112 235.072V235.072L376.223 235.529ZM386.923 247.192L386.402 248.046L386.412 248.052L386.923 247.192ZM417.204 247.085L416.646 246.255L416.639 246.26L417.204 247.085ZM426.406 235.957L426.809 235.042L425.886 234.636L425.487 235.561L426.406 235.957ZM434.431 239.488L435.362 239.852L435.712 238.959L434.834 238.573L434.431 239.488ZM428.011 249.011L427.296 248.312L427.295 248.312L428.011 249.011ZM417.097 256.394L416.692 255.48L416.686 255.482L417.097 256.394ZM402.545 258.283C397.03 258.283 391.993 257.306 387.42 255.366L386.639 257.208C391.483 259.262 396.789 260.283 402.545 260.283V258.283ZM387.432 255.372C382.842 253.354 378.849 250.576 375.446 247.034L374.004 248.42C377.592 252.154 381.802 255.082 386.628 257.203L387.432 255.372ZM375.46 247.049C372.126 243.438 369.516 239.196 367.633 234.313L365.767 235.033C367.736 240.137 370.475 244.598 373.99 248.405L375.46 247.049ZM367.633 234.313C365.756 229.448 364.811 224.079 364.811 218.195H362.811C362.811 224.295 363.792 229.912 365.767 235.033L367.633 234.313ZM364.811 218.195C364.811 212.311 365.756 206.942 367.633 202.077L365.767 201.357C363.792 206.478 362.811 212.095 362.811 218.195H364.811ZM367.633 202.077C369.516 197.194 372.126 192.952 375.46 189.341L373.99 187.985C370.475 191.792 367.736 196.253 365.767 201.357L367.633 202.077ZM375.453 189.349C378.853 185.741 382.839 182.967 387.42 181.024L386.639 179.182C381.804 181.234 377.588 184.167 373.997 187.977L375.453 189.349ZM387.432 181.019C392.002 179.011 397.035 178 402.545 178V176C396.784 176 391.474 177.058 386.628 179.187L387.432 181.019ZM402.545 178C407.847 178 412.554 178.941 416.686 180.801L417.507 178.977C413.08 176.985 408.086 176 402.545 176V178ZM416.692 180.803C420.938 182.683 424.464 185.108 427.287 188.069L428.735 186.689C425.709 183.516 421.958 180.947 417.502 178.975L416.692 180.803ZM427.304 188.086C430.218 191.001 432.271 194.06 433.497 197.26L435.365 196.544C434.022 193.039 431.796 189.75 428.718 186.672L427.304 188.086ZM434.028 195.987L426.003 199.518L426.809 201.348L434.834 197.817L434.028 195.987ZM427.324 200.037C425.252 195.227 422.061 191.366 417.762 188.475L416.646 190.135C420.622 192.808 423.565 196.366 425.487 200.829L427.324 200.037ZM417.778 188.486C413.52 185.498 408.425 184.025 402.545 184.025V186.025C408.078 186.025 412.756 187.405 416.629 190.124L417.778 188.486ZM402.545 184.025C396.53 184.025 391.139 185.458 386.402 188.344L387.443 190.052C391.837 187.374 396.861 186.025 402.545 186.025V184.025ZM386.402 188.344C381.672 191.227 377.981 195.255 375.334 200.404L377.112 201.318C379.6 196.48 383.043 192.733 387.443 190.052L386.402 188.344ZM375.336 200.398C372.681 205.489 371.371 211.431 371.371 218.195H373.371C373.371 211.691 374.629 206.077 377.109 201.324L375.336 200.398ZM371.371 218.195C371.371 224.89 372.681 230.829 375.334 235.986L377.112 235.072C374.628 230.242 373.371 224.625 373.371 218.195H371.371ZM375.334 235.986C377.981 241.135 381.672 245.163 386.402 248.046L387.443 246.338C383.043 243.657 379.6 239.91 377.112 235.072L375.334 235.986ZM386.412 248.052C391.148 250.863 396.535 252.258 402.545 252.258V250.258C396.856 250.258 391.829 248.942 387.433 246.332L386.412 248.052ZM402.545 252.258C408.42 252.258 413.511 250.823 417.769 247.91L416.639 246.26C412.765 248.911 408.083 250.258 402.545 250.258V252.258ZM417.762 247.915C422.061 245.024 425.252 241.163 427.324 236.353L425.487 235.561C423.565 240.024 420.622 243.582 416.646 246.255L417.762 247.915ZM426.003 236.872L434.028 240.403L434.834 238.573L426.809 235.042L426.003 236.872ZM433.5 239.124C432.274 242.256 430.218 245.321 427.296 248.312L428.726 249.71C431.796 246.567 434.02 243.282 435.362 239.852L433.5 239.124ZM427.295 248.312C424.471 251.206 420.943 253.598 416.692 255.48L417.502 257.308C421.954 255.338 425.702 252.808 428.726 249.71L427.295 248.312ZM416.686 255.482C412.554 257.342 407.847 258.283 402.545 258.283V260.283C408.086 260.283 413.08 259.298 417.507 257.306L416.686 255.482ZM447.619 257.999H446.619V258.999H447.619V257.999ZM447.619 178.284V177.284H446.619V178.284H447.619ZM498.979 178.284H499.979V177.284H498.979V178.284ZM498.979 186.309V187.309H499.979V186.309H498.979ZM456.179 186.309V185.309H455.179V186.309H456.179ZM456.179 214.022H455.179V215.022H456.179V214.022ZM496.839 214.022H497.839V213.022H496.839V214.022ZM496.839 222.047V223.047H497.839V222.047H496.839ZM456.179 222.047V221.047H455.179V222.047H456.179ZM456.179 249.974H455.179V250.974H456.179V249.974ZM498.979 249.974H499.979V248.974H498.979V249.974ZM498.979 257.999V258.999H499.979V257.999H498.979ZM448.619 257.999V178.284H446.619V257.999H448.619ZM447.619 179.284H498.979V177.284H447.619V179.284ZM497.979 178.284V186.309H499.979V178.284H497.979ZM498.979 185.309H456.179V187.309H498.979V185.309ZM455.179 186.309V214.022H457.179V186.309H455.179ZM456.179 215.022H496.839V213.022H456.179V215.022ZM495.839 214.022V222.047H497.839V214.022H495.839ZM496.839 221.047H456.179V223.047H496.839V221.047ZM455.179 222.047V249.974H457.179V222.047H455.179ZM456.179 250.974H498.979V248.974H456.179V250.974ZM497.979 249.974V257.999H499.979V249.974H497.979ZM498.979 256.999H447.619V258.999H498.979V256.999Z" fill="#16215B" mask="url(#path-5-outside-3_15_174)"/>
</g>
<g opacity="0.03">
<mask id="path-7-outside-4_15_174" maskUnits="userSpaceOnUse" x="8" y="263.999" width="492" height="85" fill="black">
<rect fill="white" x="8" y="263.999" width="492" height="85"/>
<path d="M9.416 345.999V266.284H36.808C42.0153 266.284 46.5807 267.318 50.504 269.387C54.4273 271.384 57.459 274.238 59.599 277.947C61.8103 281.585 62.916 285.829 62.916 290.68C62.916 295.531 61.8103 299.775 59.599 303.413C57.459 307.051 54.4273 309.904 50.504 311.973C46.652 313.97 42.0867 314.969 36.808 314.969H17.976V345.999H9.416ZM17.976 306.944H37.236C40.66 306.944 43.656 306.302 46.224 305.018C48.792 303.663 50.7893 301.772 52.216 299.347C53.6427 296.85 54.356 293.926 54.356 290.573C54.356 287.22 53.6427 284.331 52.216 281.906C50.7893 279.481 48.792 277.626 46.224 276.342C43.656 274.987 40.66 274.309 37.236 274.309H17.976V306.944ZM76.0319 345.999V266.284H103.424C108.631 266.284 113.197 267.318 117.12 269.387C121.043 271.384 124.075 274.238 126.215 277.947C128.426 281.585 129.532 285.829 129.532 290.68C129.532 296.315 128.034 301.13 125.038 305.125C122.113 309.12 118.119 311.937 113.054 313.578L131.672 345.999H121.614L102.14 311.652L107.918 314.969H84.5919V345.999H76.0319ZM84.5919 306.944H103.852C107.276 306.944 110.272 306.302 112.84 305.018C115.408 303.663 117.405 301.772 118.832 299.347C120.259 296.85 120.972 293.926 120.972 290.573C120.972 287.22 120.259 284.331 118.832 281.906C117.405 279.481 115.408 277.626 112.84 276.342C110.272 274.987 107.276 274.309 103.852 274.309H84.5919V306.944ZM134.2 345.999L163.304 266.284H172.506L201.61 345.999H192.622L185.774 326.525H150.143L143.188 345.999H134.2ZM152.925 318.5H182.778L166.621 272.704H169.189L152.925 318.5ZM243.24 347.283C237.605 347.283 232.433 346.284 227.725 344.287C223.017 342.218 218.916 339.365 215.42 335.727C211.996 332.018 209.321 327.666 207.395 322.673C205.469 317.68 204.506 312.187 204.506 306.195C204.506 300.203 205.469 294.71 207.395 289.717C209.321 284.724 211.996 280.372 215.42 276.663C218.916 272.954 223.017 270.1 227.725 268.103C232.433 266.034 237.605 265 243.24 265C248.662 265 253.512 265.963 257.792 267.889C262.144 269.815 265.782 272.312 268.706 275.379C271.702 278.375 273.842 281.549 275.126 284.902L267.101 288.433C265.104 283.796 262.037 280.087 257.899 277.305C253.833 274.452 248.947 273.025 243.24 273.025C237.391 273.025 232.184 274.416 227.618 277.198C223.053 279.98 219.486 283.868 216.918 288.861C214.35 293.783 213.066 299.561 213.066 306.195C213.066 312.758 214.35 318.536 216.918 323.529C219.486 328.522 223.053 332.41 227.618 335.192C232.184 337.903 237.391 339.258 243.24 339.258C248.947 339.258 253.833 337.867 257.899 335.085C262.037 332.303 265.104 328.594 267.101 323.957L275.126 327.488C273.842 330.769 271.702 333.944 268.706 337.011C265.782 340.007 262.144 342.468 257.792 344.394C253.512 346.32 248.662 347.283 243.24 347.283ZM302.117 345.999V274.309H280.075V266.284H332.505V274.309H310.677V345.999H302.117ZM340.928 345.999V266.284H349.488V345.999H340.928ZM402.545 347.283C396.91 347.283 391.738 346.284 387.03 344.287C382.322 342.218 378.22 339.365 374.725 335.727C371.301 332.018 368.626 327.666 366.7 322.673C364.774 317.68 363.811 312.187 363.811 306.195C363.811 300.203 364.774 294.71 366.7 289.717C368.626 284.724 371.301 280.372 374.725 276.663C378.22 272.954 382.322 270.1 387.03 268.103C391.738 266.034 396.91 265 402.545 265C407.966 265 412.817 265.963 417.097 267.889C421.448 269.815 425.086 272.312 428.011 275.379C431.007 278.375 433.147 281.549 434.431 284.902L426.406 288.433C424.409 283.796 421.341 280.087 417.204 277.305C413.138 274.452 408.252 273.025 402.545 273.025C396.696 273.025 391.488 274.416 386.923 277.198C382.358 279.98 378.791 283.868 376.223 288.861C373.655 293.783 372.371 299.561 372.371 306.195C372.371 312.758 373.655 318.536 376.223 323.529C378.791 328.522 382.358 332.41 386.923 335.192C391.488 337.903 396.696 339.258 402.545 339.258C408.252 339.258 413.138 337.867 417.204 335.085C421.341 332.303 424.409 328.594 426.406 323.957L434.431 327.488C433.147 330.769 431.007 333.944 428.011 337.011C425.086 340.007 421.448 342.468 417.097 344.394C412.817 346.32 407.966 347.283 402.545 347.283ZM447.619 345.999V266.284H498.979V274.309H456.179V302.022H496.839V310.047H456.179V337.974H498.979V345.999H447.619Z"/>
</mask>
<path d="M9.416 345.999H8.416V346.999H9.416V345.999ZM9.416 266.284V265.284H8.416V266.284H9.416ZM50.504 269.387L50.0376 270.272L50.0439 270.275L50.0503 270.278L50.504 269.387ZM59.599 277.947L58.7328 278.447L58.7385 278.457L58.7445 278.466L59.599 277.947ZM59.599 303.413L58.7445 302.894L58.7407 302.9L58.7371 302.906L59.599 303.413ZM50.504 311.973L50.9643 312.861L50.9704 312.858L50.504 311.973ZM17.976 314.969V313.969H16.976V314.969H17.976ZM17.976 345.999V346.999H18.976V345.999H17.976ZM17.976 306.944H16.976V307.944H17.976V306.944ZM46.224 305.018L46.6712 305.912L46.681 305.908L46.6908 305.902L46.224 305.018ZM52.216 299.347L53.078 299.854L53.0842 299.843L52.216 299.347ZM52.216 281.906L53.0779 281.399V281.399L52.216 281.906ZM46.224 276.342L45.7572 277.226L45.767 277.232L45.7768 277.236L46.224 276.342ZM17.976 274.309V273.309H16.976V274.309H17.976ZM9.416 345.999H10.416V266.284H9.416H8.416V345.999H9.416ZM9.416 266.284V267.284H36.808V266.284V265.284H9.416V266.284ZM36.808 266.284V267.284C41.8811 267.284 46.2811 268.291 50.0376 270.272L50.504 269.387L50.9704 268.502C46.8802 266.346 42.1496 265.284 36.808 265.284V266.284ZM50.504 269.387L50.0503 270.278C53.8063 272.19 56.6924 274.91 58.7328 278.447L59.599 277.947L60.4652 277.447C58.2256 273.565 55.0484 270.578 50.9577 268.496L50.504 269.387ZM59.599 277.947L58.7445 278.466C60.848 281.927 61.916 285.986 61.916 290.68H62.916H63.916C63.916 285.672 62.7727 281.243 60.4535 277.428L59.599 277.947ZM62.916 290.68H61.916C61.916 295.374 60.848 299.433 58.7445 302.894L59.599 303.413L60.4535 303.932C62.7727 300.117 63.916 295.688 63.916 290.68H62.916ZM59.599 303.413L58.7371 302.906C56.6962 306.376 53.8053 309.102 50.0376 311.088L50.504 311.973L50.9704 312.858C55.0494 310.707 58.2218 307.727 60.4609 303.92L59.599 303.413ZM50.504 311.973L50.0437 311.085C46.3615 312.995 41.9607 313.969 36.808 313.969V314.969V315.969C42.2126 315.969 46.9425 314.946 50.9643 312.861L50.504 311.973ZM36.808 314.969V313.969H17.976V314.969V315.969H36.808V314.969ZM17.976 314.969H16.976V345.999H17.976H18.976V314.969H17.976ZM17.976 345.999V344.999H9.416V345.999V346.999H17.976V345.999ZM17.976 306.944V307.944H37.236V306.944V305.944H17.976V306.944ZM37.236 306.944V307.944C40.7856 307.944 43.9401 307.278 46.6712 305.912L46.224 305.018L45.7768 304.124C43.3719 305.326 40.5344 305.944 37.236 305.944V306.944ZM46.224 305.018L46.6908 305.902C49.4174 304.463 51.554 302.445 53.0779 299.854L52.216 299.347L51.3541 298.84C50.0247 301.1 48.1666 302.862 45.7572 304.134L46.224 305.018ZM52.216 299.347L53.0842 299.843C54.6106 297.172 55.356 294.071 55.356 290.573H54.356H53.356C53.356 293.781 52.6747 296.529 51.3478 298.851L52.216 299.347ZM54.356 290.573H55.356C55.356 287.076 54.6109 284.005 53.0779 281.399L52.216 281.906L51.3541 282.413C52.6744 284.658 53.356 287.364 53.356 290.573H54.356ZM52.216 281.906L53.0779 281.399C51.5513 278.804 49.4082 276.816 46.6712 275.448L46.224 276.342L45.7768 277.236C48.1758 278.436 50.0274 280.158 51.3541 282.413L52.216 281.906ZM46.224 276.342L46.6908 275.458C43.9552 274.014 40.7936 273.309 37.236 273.309V274.309V275.309C40.5264 275.309 43.3568 275.96 45.7572 277.226L46.224 276.342ZM37.236 274.309V273.309H17.976V274.309V275.309H37.236V274.309ZM17.976 274.309H16.976V306.944H17.976H18.976V274.309H17.976ZM76.0319 345.999H75.0319V346.999H76.0319V345.999ZM76.0319 266.284V265.284H75.0319V266.284H76.0319ZM117.12 269.387L116.653 270.272L116.66 270.275L116.666 270.278L117.12 269.387ZM126.215 277.947L125.349 278.447L125.354 278.457L125.36 278.466L126.215 277.947ZM125.038 305.125L124.238 304.525L124.231 304.534L125.038 305.125ZM113.054 313.578L112.746 312.627L111.573 313.007L112.187 314.076L113.054 313.578ZM131.672 345.999V346.999H133.399L132.539 345.501L131.672 345.999ZM121.614 345.999L120.744 346.492L121.031 346.999H121.614V345.999ZM102.14 311.652L102.638 310.785L99.4664 308.964L101.27 312.145L102.14 311.652ZM107.918 314.969V315.969H111.668L108.416 314.102L107.918 314.969ZM84.5919 314.969V313.969H83.5919V314.969H84.5919ZM84.5919 345.999V346.999H85.5919V345.999H84.5919ZM84.5919 306.944H83.5919V307.944H84.5919V306.944ZM112.84 305.018L113.287 305.912L113.297 305.908L113.307 305.902L112.84 305.018ZM118.832 299.347L119.694 299.854L119.7 299.843L118.832 299.347ZM118.832 281.906L119.694 281.399V281.399L118.832 281.906ZM112.84 276.342L112.373 277.226L112.383 277.232L112.393 277.236L112.84 276.342ZM84.5919 274.309V273.309H83.5919V274.309H84.5919ZM76.0319 345.999H77.0319V266.284H76.0319H75.0319V345.999H76.0319ZM76.0319 266.284V267.284H103.424V266.284V265.284H76.0319V266.284ZM103.424 266.284V267.284C108.497 267.284 112.897 268.291 116.653 270.272L117.12 269.387L117.586 268.502C113.496 266.346 108.765 265.284 103.424 265.284V266.284ZM117.12 269.387L116.666 270.278C120.422 272.19 123.308 274.91 125.349 278.447L126.215 277.947L127.081 277.447C124.841 273.565 121.664 270.578 117.574 268.496L117.12 269.387ZM126.215 277.947L125.36 278.466C127.464 281.927 128.532 285.986 128.532 290.68H129.532H130.532C130.532 285.672 129.389 281.243 127.069 277.428L126.215 277.947ZM129.532 290.68H128.532C128.532 296.128 127.088 300.725 124.238 304.525L125.038 305.125L125.838 305.725C128.98 301.535 130.532 296.503 130.532 290.68H129.532ZM125.038 305.125L124.231 304.534C121.44 308.346 117.626 311.046 112.746 312.627L113.054 313.578L113.362 314.529C118.611 312.829 122.786 309.893 125.845 305.716L125.038 305.125ZM113.054 313.578L112.187 314.076L130.805 346.497L131.672 345.999L132.539 345.501L113.921 313.08L113.054 313.578ZM131.672 345.999V344.999H121.614V345.999V346.999H131.672V345.999ZM121.614 345.999L122.484 345.506L103.01 311.159L102.14 311.652L101.27 312.145L120.744 346.492L121.614 345.999ZM102.14 311.652L101.642 312.519L107.42 315.836L107.918 314.969L108.416 314.102L102.638 310.785L102.14 311.652ZM107.918 314.969V313.969H84.5919V314.969V315.969H107.918V314.969ZM84.5919 314.969H83.5919V345.999H84.5919H85.5919V314.969H84.5919ZM84.5919 345.999V344.999H76.0319V345.999V346.999H84.5919V345.999ZM84.5919 306.944V307.944H103.852V306.944V305.944H84.5919V306.944ZM103.852 306.944V307.944C107.401 307.944 110.556 307.278 113.287 305.912L112.84 305.018L112.393 304.124C109.988 305.326 107.15 305.944 103.852 305.944V306.944ZM112.84 305.018L113.307 305.902C116.033 304.463 118.17 302.445 119.694 299.854L118.832 299.347L117.97 298.84C116.641 301.1 114.782 302.862 112.373 304.134L112.84 305.018ZM118.832 299.347L119.7 299.843C121.227 297.172 121.972 294.071 121.972 290.573H120.972H119.972C119.972 293.781 119.291 296.529 117.964 298.851L118.832 299.347ZM120.972 290.573H121.972C121.972 287.076 121.227 284.005 119.694 281.399L118.832 281.906L117.97 282.413C119.29 284.658 119.972 287.364 119.972 290.573H120.972ZM118.832 281.906L119.694 281.399C118.167 278.804 116.024 276.816 113.287 275.448L112.84 276.342L112.393 277.236C114.792 278.436 116.643 280.158 117.97 282.413L118.832 281.906ZM112.84 276.342L113.307 275.458C110.571 274.014 107.409 273.309 103.852 273.309V274.309V275.309C107.142 275.309 109.973 275.96 112.373 277.226L112.84 276.342ZM103.852 274.309V273.309H84.5919V274.309V275.309H103.852V274.309ZM84.5919 274.309H83.5919V306.944H84.5919H85.5919V274.309H84.5919ZM134.2 345.999L133.26 345.656L132.77 346.999H134.2V345.999ZM163.304 266.284V265.284H162.604L162.364 265.941L163.304 266.284ZM172.506 266.284L173.445 265.941L173.205 265.284H172.506V266.284ZM201.61 345.999V346.999H203.039L202.549 345.656L201.61 345.999ZM192.622 345.999L191.678 346.331L191.913 346.999H192.622V345.999ZM185.774 326.525L186.717 326.193L186.482 325.525H185.774V326.525ZM150.143 326.525V325.525H149.438L149.201 326.189L150.143 326.525ZM143.188 345.999V346.999H143.892L144.129 346.335L143.188 345.999ZM152.925 318.5L151.982 318.165L151.508 319.5H152.925V318.5ZM182.778 318.5V319.5H184.191L183.721 318.167L182.778 318.5ZM166.621 272.704V271.704H165.208L165.678 273.037L166.621 272.704ZM169.189 272.704L170.131 273.039L170.605 271.704H169.189V272.704ZM134.2 345.999L135.139 346.342L164.243 266.627L163.304 266.284L162.364 265.941L133.26 345.656L134.2 345.999ZM163.304 266.284V267.284H172.506V266.284V265.284H163.304V266.284ZM172.506 266.284L171.566 266.627L200.67 346.342L201.61 345.999L202.549 345.656L173.445 265.941L172.506 266.284ZM201.61 345.999V344.999H192.622V345.999V346.999H201.61V345.999ZM192.622 345.999L193.565 345.667L186.717 326.193L185.774 326.525L184.83 326.857L191.678 346.331L192.622 345.999ZM185.774 326.525V325.525H150.143V326.525V327.525H185.774V326.525ZM150.143 326.525L149.201 326.189L142.246 345.663L143.188 345.999L144.129 346.335L151.084 326.861L150.143 326.525ZM143.188 345.999V344.999H134.2V345.999V346.999H143.188V345.999ZM152.925 318.5V319.5H182.778V318.5V317.5H152.925V318.5ZM182.778 318.5L183.721 318.167L167.564 272.371L166.621 272.704L165.678 273.037L181.835 318.833L182.778 318.5ZM166.621 272.704V273.704H169.189V272.704V271.704H166.621V272.704ZM169.189 272.704L168.246 272.369L151.982 318.165L152.925 318.5L153.867 318.835L170.131 273.039L169.189 272.704ZM227.725 344.287L227.323 345.203L227.335 345.208L227.725 344.287ZM215.42 335.727L214.685 336.405L214.692 336.413L214.699 336.42L215.42 335.727ZM207.395 289.717L206.462 289.357L207.395 289.717ZM215.42 276.663L214.692 275.977L214.685 275.985L215.42 276.663ZM227.725 268.103L228.116 269.024L228.128 269.019L227.725 268.103ZM257.792 267.889L257.382 268.801L257.388 268.803L257.792 267.889ZM268.706 275.379L267.983 276.069L267.991 276.078L267.999 276.086L268.706 275.379ZM275.126 284.902L275.529 285.817L276.401 285.434L276.06 284.544L275.126 284.902ZM267.101 288.433L266.183 288.829L266.582 289.754L267.504 289.348L267.101 288.433ZM257.899 277.305L257.325 278.124L257.333 278.129L257.341 278.135L257.899 277.305ZM227.618 277.198L228.139 278.052V278.052L227.618 277.198ZM216.918 288.861L217.805 289.324L217.808 289.318L216.918 288.861ZM216.918 323.529L217.808 323.072V323.072L216.918 323.529ZM227.618 335.192L227.098 336.046L227.108 336.052L227.618 335.192ZM257.899 335.085L257.341 334.255L257.335 334.26L257.899 335.085ZM267.101 323.957L267.504 323.042L266.582 322.636L266.183 323.561L267.101 323.957ZM275.126 327.488L276.057 327.852L276.407 326.959L275.529 326.573L275.126 327.488ZM268.706 337.011L267.991 336.312L267.991 336.312L268.706 337.011ZM257.792 344.394L257.388 343.48L257.382 343.482L257.792 344.394ZM243.24 347.283V346.283C237.725 346.283 232.688 345.306 228.116 343.366L227.725 344.287L227.335 345.208C232.178 347.262 237.484 348.283 243.24 348.283V347.283ZM227.725 344.287L228.128 343.372C223.537 341.354 219.544 338.576 216.141 335.034L215.42 335.727L214.699 336.42C218.287 340.154 222.498 343.082 227.323 345.203L227.725 344.287ZM215.42 335.727L216.155 335.049C212.822 331.438 210.212 327.196 208.328 322.313L207.395 322.673L206.462 323.033C208.431 328.137 211.171 332.598 214.685 336.405L215.42 335.727ZM207.395 322.673L208.328 322.313C206.452 317.448 205.506 312.079 205.506 306.195H204.506H203.506C203.506 312.295 204.487 317.912 206.462 323.033L207.395 322.673ZM204.506 306.195H205.506C205.506 300.311 206.452 294.942 208.328 290.077L207.395 289.717L206.462 289.357C204.487 294.478 203.506 300.095 203.506 306.195H204.506ZM207.395 289.717L208.328 290.077C210.212 285.194 212.822 280.952 216.155 277.341L215.42 276.663L214.685 275.985C211.171 279.792 208.431 284.253 206.462 289.357L207.395 289.717ZM215.42 276.663L216.148 277.349C219.548 273.741 223.535 270.967 228.116 269.024L227.725 268.103L227.335 267.182C222.5 269.234 218.283 272.167 214.692 275.977L215.42 276.663ZM227.725 268.103L228.128 269.019C232.697 267.011 237.73 266 243.24 266V265V264C237.48 264 232.169 265.058 227.323 267.188L227.725 268.103ZM243.24 265V266C248.542 266 253.249 266.941 257.382 268.801L257.792 267.889L258.203 266.977C253.775 264.985 248.781 264 243.24 264V265ZM257.792 267.889L257.388 268.803C261.634 270.683 265.159 273.108 267.983 276.069L268.706 275.379L269.43 274.689C266.404 271.516 262.654 268.947 258.197 266.975L257.792 267.889ZM268.706 275.379L267.999 276.086C270.914 279.001 272.967 282.06 274.192 285.26L275.126 284.902L276.06 284.544C274.718 281.039 272.491 277.75 269.413 274.672L268.706 275.379ZM275.126 284.902L274.724 283.987L266.699 287.518L267.101 288.433L267.504 289.348L275.529 285.817L275.126 284.902ZM267.101 288.433L268.02 288.037C265.947 283.227 262.756 279.366 258.457 276.475L257.899 277.305L257.341 278.135C261.317 280.808 264.26 284.366 266.183 288.829L267.101 288.433ZM257.899 277.305L258.474 276.486C254.215 273.498 249.121 272.025 243.24 272.025V273.025V274.025C248.773 274.025 253.451 275.405 257.325 278.124L257.899 277.305ZM243.24 273.025V272.025C237.225 272.025 231.835 273.458 227.098 276.344L227.618 277.198L228.139 278.052C232.533 275.374 237.557 274.025 243.24 274.025V273.025ZM227.618 277.198L227.098 276.344C222.367 279.227 218.677 283.255 216.029 288.404L216.918 288.861L217.808 289.318C220.296 284.48 223.738 280.733 228.139 278.052L227.618 277.198ZM216.918 288.861L216.032 288.398C213.376 293.489 212.066 299.431 212.066 306.195H213.066H214.066C214.066 299.691 215.325 294.077 217.805 289.324L216.918 288.861ZM213.066 306.195H212.066C212.066 312.89 213.377 318.829 216.029 323.986L216.918 323.529L217.808 323.072C215.324 318.242 214.066 312.625 214.066 306.195H213.066ZM216.918 323.529L216.029 323.986C218.677 329.135 222.367 333.163 227.098 336.046L227.618 335.192L228.139 334.338C223.738 331.657 220.296 327.91 217.808 323.072L216.918 323.529ZM227.618 335.192L227.108 336.052C231.843 338.863 237.23 340.258 243.24 340.258V339.258V338.258C237.552 338.258 232.524 336.942 228.129 334.332L227.618 335.192ZM243.24 339.258V340.258C249.116 340.258 254.206 338.823 258.464 335.91L257.899 335.085L257.335 334.26C253.46 336.911 248.778 338.258 243.24 338.258V339.258ZM257.899 335.085L258.457 335.915C262.756 333.024 265.947 329.163 268.02 324.353L267.101 323.957L266.183 323.561C264.26 328.024 261.317 331.582 257.341 334.255L257.899 335.085ZM267.101 323.957L266.699 324.872L274.724 328.403L275.126 327.488L275.529 326.573L267.504 323.042L267.101 323.957ZM275.126 327.488L274.195 327.124C272.969 330.256 270.913 333.321 267.991 336.312L268.706 337.011L269.422 337.71C272.491 334.567 274.715 331.282 276.057 327.852L275.126 327.488ZM268.706 337.011L267.991 336.312C265.166 339.206 261.638 341.598 257.388 343.48L257.792 344.394L258.197 345.308C262.649 343.338 266.397 340.808 269.422 337.71L268.706 337.011ZM257.792 344.394L257.382 343.482C253.249 345.342 248.542 346.283 243.24 346.283V347.283V348.283C248.781 348.283 253.775 347.298 258.203 345.306L257.792 344.394ZM302.117 345.999H301.117V346.999H302.117V345.999ZM302.117 274.309H303.117V273.309H302.117V274.309ZM280.075 274.309H279.075V275.309H280.075V274.309ZM280.075 266.284V265.284H279.075V266.284H280.075ZM332.505 266.284H333.505V265.284H332.505V266.284ZM332.505 274.309V275.309H333.505V274.309H332.505ZM310.677 274.309V273.309H309.677V274.309H310.677ZM310.677 345.999V346.999H311.677V345.999H310.677ZM302.117 345.999H303.117V274.309H302.117H301.117V345.999H302.117ZM302.117 274.309V273.309H280.075V274.309V275.309H302.117V274.309ZM280.075 274.309H281.075V266.284H280.075H279.075V274.309H280.075ZM280.075 266.284V267.284H332.505V266.284V265.284H280.075V266.284ZM332.505 266.284H331.505V274.309H332.505H333.505V266.284H332.505ZM332.505 274.309V273.309H310.677V274.309V275.309H332.505V274.309ZM310.677 274.309H309.677V345.999H310.677H311.677V274.309H310.677ZM310.677 345.999V344.999H302.117V345.999V346.999H310.677V345.999ZM340.928 345.999H339.928V346.999H340.928V345.999ZM340.928 266.284V265.284H339.928V266.284H340.928ZM349.488 266.284H350.488V265.284H349.488V266.284ZM349.488 345.999V346.999H350.488V345.999H349.488ZM340.928 345.999H341.928V266.284H340.928H339.928V345.999H340.928ZM340.928 266.284V267.284H349.488V266.284V265.284H340.928V266.284ZM349.488 266.284H348.488V345.999H349.488H350.488V266.284H349.488ZM349.488 345.999V344.999H340.928V345.999V346.999H349.488V345.999ZM387.03 344.287L386.628 345.203L386.639 345.208L387.03 344.287ZM374.725 335.727L373.99 336.405L373.997 336.413L374.004 336.42L374.725 335.727ZM366.7 289.717L365.767 289.357L366.7 289.717ZM374.725 276.663L373.997 275.977L373.99 275.985L374.725 276.663ZM387.03 268.103L387.42 269.024L387.432 269.019L387.03 268.103ZM417.097 267.889L416.686 268.801L416.692 268.803L417.097 267.889ZM428.011 275.379L427.287 276.069L427.295 276.078L427.304 276.086L428.011 275.379ZM434.431 284.902L434.834 285.817L435.705 285.434L435.365 284.544L434.431 284.902ZM426.406 288.433L425.487 288.829L425.886 289.754L426.809 289.348L426.406 288.433ZM417.204 277.305L416.629 278.124L416.638 278.129L416.646 278.135L417.204 277.305ZM386.923 277.198L387.443 278.052V278.052L386.923 277.198ZM376.223 288.861L377.109 289.324L377.112 289.318L376.223 288.861ZM376.223 323.529L377.112 323.072V323.072L376.223 323.529ZM386.923 335.192L386.402 336.046L386.412 336.052L386.923 335.192ZM417.204 335.085L416.646 334.255L416.639 334.26L417.204 335.085ZM426.406 323.957L426.809 323.042L425.886 322.636L425.487 323.561L426.406 323.957ZM434.431 327.488L435.362 327.852L435.712 326.959L434.834 326.573L434.431 327.488ZM428.011 337.011L427.296 336.312L427.295 336.312L428.011 337.011ZM417.097 344.394L416.692 343.48L416.687 343.482L417.097 344.394ZM402.545 347.283V346.283C397.03 346.283 391.993 345.306 387.42 343.366L387.03 344.287L386.639 345.208C391.483 347.262 396.789 348.283 402.545 348.283V347.283ZM387.03 344.287L387.432 343.372C382.842 341.354 378.849 338.576 375.446 335.034L374.725 335.727L374.004 336.42C377.592 340.154 381.802 343.082 386.628 345.203L387.03 344.287ZM374.725 335.727L375.46 335.049C372.126 331.438 369.516 327.196 367.633 322.313L366.7 322.673L365.767 323.033C367.736 328.137 370.475 332.598 373.99 336.405L374.725 335.727ZM366.7 322.673L367.633 322.313C365.756 317.448 364.811 312.079 364.811 306.195H363.811H362.811C362.811 312.295 363.792 317.912 365.767 323.033L366.7 322.673ZM363.811 306.195H364.811C364.811 300.311 365.756 294.942 367.633 290.077L366.7 289.717L365.767 289.357C363.792 294.478 362.811 300.095 362.811 306.195H363.811ZM366.7 289.717L367.633 290.077C369.516 285.194 372.126 280.952 375.46 277.341L374.725 276.663L373.99 275.985C370.475 279.792 367.736 284.253 365.767 289.357L366.7 289.717ZM374.725 276.663L375.453 277.349C378.853 273.741 382.839 270.967 387.42 269.024L387.03 268.103L386.639 267.182C381.804 269.234 377.588 272.167 373.997 275.977L374.725 276.663ZM387.03 268.103L387.432 269.019C392.002 267.011 397.035 266 402.545 266V265V264C396.784 264 391.474 265.058 386.628 267.188L387.03 268.103ZM402.545 265V266C407.847 266 412.554 266.941 416.687 268.801L417.097 267.889L417.507 266.977C413.08 264.985 408.086 264 402.545 264V265ZM417.097 267.889L416.692 268.803C420.938 270.683 424.464 273.108 427.287 276.069L428.011 275.379L428.735 274.689C425.709 271.516 421.958 268.947 417.502 266.975L417.097 267.889ZM428.011 275.379L427.304 276.086C430.218 279.001 432.271 282.06 433.497 285.26L434.431 284.902L435.365 284.544C434.022 281.039 431.796 277.75 428.718 274.672L428.011 275.379ZM434.431 284.902L434.028 283.987L426.003 287.518L426.406 288.433L426.809 289.348L434.834 285.817L434.431 284.902ZM426.406 288.433L427.324 288.037C425.252 283.227 422.061 279.366 417.762 276.475L417.204 277.305L416.646 278.135C420.622 280.808 423.565 284.366 425.487 288.829L426.406 288.433ZM417.204 277.305L417.778 276.486C413.52 273.498 408.425 272.025 402.545 272.025V273.025V274.025C408.078 274.025 412.756 275.405 416.629 278.124L417.204 277.305ZM402.545 273.025V272.025C396.53 272.025 391.139 273.458 386.402 276.344L386.923 277.198L387.443 278.052C391.837 275.374 396.861 274.025 402.545 274.025V273.025ZM386.923 277.198L386.402 276.344C381.672 279.227 377.981 283.255 375.334 288.404L376.223 288.861L377.112 289.318C379.6 284.48 383.043 280.733 387.443 278.052L386.923 277.198ZM376.223 288.861L375.336 288.398C372.681 293.489 371.371 299.431 371.371 306.195H372.371H373.371C373.371 299.691 374.629 294.077 377.109 289.324L376.223 288.861ZM372.371 306.195H371.371C371.371 312.89 372.681 318.829 375.334 323.986L376.223 323.529L377.112 323.072C374.628 318.242 373.371 312.625 373.371 306.195H372.371ZM376.223 323.529L375.334 323.986C377.981 329.135 381.672 333.163 386.402 336.046L386.923 335.192L387.443 334.338C383.043 331.657 379.6 327.91 377.112 323.072L376.223 323.529ZM386.923 335.192L386.412 336.052C391.148 338.863 396.535 340.258 402.545 340.258V339.258V338.258C396.856 338.258 391.829 336.942 387.433 334.332L386.923 335.192ZM402.545 339.258V340.258C408.42 340.258 413.511 338.823 417.769 335.91L417.204 335.085L416.639 334.26C412.765 336.911 408.083 338.258 402.545 338.258V339.258ZM417.204 335.085L417.762 335.915C422.061 333.024 425.252 329.163 427.324 324.353L426.406 323.957L425.487 323.561C423.565 328.024 420.622 331.582 416.646 334.255L417.204 335.085ZM426.406 323.957L426.003 324.872L434.028 328.403L434.431 327.488L434.834 326.573L426.809 323.042L426.406 323.957ZM434.431 327.488L433.5 327.124C432.274 330.256 430.218 333.321 427.296 336.312L428.011 337.011L428.726 337.71C431.796 334.567 434.02 331.282 435.362 327.852L434.431 327.488ZM428.011 337.011L427.295 336.312C424.471 339.206 420.943 341.598 416.692 343.48L417.097 344.394L417.502 345.308C421.954 343.338 425.702 340.808 428.726 337.71L428.011 337.011ZM417.097 344.394L416.687 343.482C412.554 345.342 407.847 346.283 402.545 346.283V347.283V348.283C408.086 348.283 413.08 347.298 417.507 345.306L417.097 344.394ZM447.619 345.999H446.619V346.999H447.619V345.999ZM447.619 266.284V265.284H446.619V266.284H447.619ZM498.979 266.284H499.979V265.284H498.979V266.284ZM498.979 274.309V275.309H499.979V274.309H498.979ZM456.179 274.309V273.309H455.179V274.309H456.179ZM456.179 302.022H455.179V303.022H456.179V302.022ZM496.839 302.022H497.839V301.022H496.839V302.022ZM496.839 310.047V311.047H497.839V310.047H496.839ZM456.179 310.047V309.047H455.179V310.047H456.179ZM456.179 337.974H455.179V338.974H456.179V337.974ZM498.979 337.974H499.979V336.974H498.979V337.974ZM498.979 345.999V346.999H499.979V345.999H498.979ZM447.619 345.999H448.619V266.284H447.619H446.619V345.999H447.619ZM447.619 266.284V267.284H498.979V266.284V265.284H447.619V266.284ZM498.979 266.284H497.979V274.309H498.979H499.979V266.284H498.979ZM498.979 274.309V273.309H456.179V274.309V275.309H498.979V274.309ZM456.179 274.309H455.179V302.022H456.179H457.179V274.309H456.179ZM456.179 302.022V303.022H496.839V302.022V301.022H456.179V302.022ZM496.839 302.022H495.839V310.047H496.839H497.839V302.022H496.839ZM496.839 310.047V309.047H456.179V310.047V311.047H496.839V310.047ZM456.179 310.047H455.179V337.974H456.179H457.179V310.047H456.179ZM456.179 337.974V338.974H498.979V337.974V336.974H456.179V337.974ZM498.979 337.974H497.979V345.999H498.979H499.979V337.974H498.979ZM498.979 345.999V344.999H447.619V345.999V346.999H498.979V345.999Z" fill="#16215B" mask="url(#path-7-outside-4_15_174)"/>
</g>
</svg>
